<svg xmlns="http://www.w3.org/2000/svg" viewBox="0 0 245.86 187.24"><defs><style>.cls-1{fill:#dae8f0;}.cls-2{fill:#8c9da7;}</style></defs><g id="Слой_2" data-name="Слой 2"><g id="Слой_2-2" data-name="Слой 2"><path class="cls-1" d="M173.3,60V41.56L109.44,21,161.24.78l.56-.22.31-.11a6.94,6.94,0,0,1,4.32-.19l79.43,23.41Z"/><polygon class="cls-2" points="173.3 41.59 173.3 60.02 169.94 61.71 169.93 61.71 83.6 31.05 83.6 12.65 173.3 41.59"/><path class="cls-2" d="M173.3,60l-3.36,1.69h0L89.74,101.89a7,7,0,0,1-6,.1L0,63.6v3.91A2,2,0,0,0,1.11,69.3l11.1,5.53V144.3a2,2,0,0,0,2,2h1.15a2,2,0,0,0,2-2V98.48L41,88.81l33.88,16.45V116A2,2,0,0,0,77,118a1.92,1.92,0,0,0,1.79-1.93v-9l3.58,1.74a7,7,0,0,0,6.23-.06l7-3.55L94.29,184.2a3,3,0,0,0,3,3H98a3,3,0,0,0,3-3l.47-54.76,53.19-30.46V148.8a2,2,0,0,0,2.3,2l2.2-.34a2,2,0,0,0,1.7-2V72.05l15.51-7.89v70.73a2,2,0,0,0,2,2h1.43a2,2,0,0,0,2-2V84.07l48.12-26.71v45.53a2,2,0,0,0,2,2h.82a2,2,0,0,0,2-2V34.47l10.06-5.12a2,2,0,0,0,1.09-1.78v-3.9ZM16.83,94l-.45-17.16L36.25,86.5Zm137.8-1.24L101.5,122.89l.18-20.76L154.63,75.2Zm75.35-40L181.92,78.36v-17L230,36.88Z"/><path class="cls-1" d="M169.93,61.71,89.74,101.89a7,7,0,0,1-6,.1L0,63.6,83.6,31.05Z"/></g></g></svg>