<?xml version="1.0" encoding="UTF-8"?>
<!DOCTYPE svg PUBLIC "-//W3C//DTD SVG 1.1//EN" "http://www.w3.org/Graphics/SVG/1.1/DTD/svg11.dtd">
<svg xmlns="http://www.w3.org/2000/svg" version="1.1" width="160px" height="75px" style="shape-rendering:geometricPrecision; text-rendering:geometricPrecision; image-rendering:optimizeQuality; fill-rule:evenodd; clip-rule:evenodd" xmlns:xlink="http://www.w3.org/1999/xlink">
<g><path style="opacity:0.825" fill="#fefffe" d="M 31.5,-0.5 C 33.1667,-0.5 34.8333,-0.5 36.5,-0.5C 36.3054,8.02746 31.9721,12.6941 23.5,13.5C 23.596,7.30202 26.2627,2.63536 31.5,-0.5 Z"/></g>
<g><path style="opacity:0.762" fill="#fefffe" d="M 63.5,3.5 C 70.9209,3.10946 78.2542,3.60946 85.5,5C 92.283,9.33435 94.783,15.501 93,23.5C 90.8068,30.0169 86.3068,33.8502 79.5,35C 75.5138,35.4988 71.5138,35.6655 67.5,35.5C 67.5,42.8333 67.5,50.1667 67.5,57.5C 65.8333,57.5 64.1667,57.5 62.5,57.5C 62.1807,39.4234 62.514,21.4234 63.5,3.5 Z M 67.5,7.5 C 71.8461,7.33432 76.1794,7.50098 80.5,8C 87.6665,10.8341 90.1665,16.0008 88,23.5C 85.9149,27.9103 82.4149,30.4103 77.5,31C 74.438,31.7415 71.438,31.5748 68.5,30.5C 67.5025,22.8622 67.1692,15.1955 67.5,7.5 Z"/></g>
<g><path style="opacity:0.953" fill="#fefffe" d="M -0.5,39.5 C -0.5,34.5 -0.5,29.5 -0.5,24.5C 4.77066,13.848 13.104,10.848 24.5,15.5C 29.7169,13.745 35.0502,13.245 40.5,14C 43.5755,14.911 45.9089,16.7443 47.5,19.5C 41.8556,23.4072 40.0223,28.7405 42,35.5C 43.7016,38.702 46.2016,41.0353 49.5,42.5C 47.0491,48.9195 43.0491,54.0861 37.5,58C 33.3208,57.9489 29.1541,57.4489 25,56.5C 21.7293,56.7215 18.5627,57.3881 15.5,58.5C 12.3703,58.3518 9.87033,57.0184 8,54.5C 4.619,49.73 1.78567,44.73 -0.5,39.5 Z"/></g>
<g><path style="opacity:0.766" fill="#fefffe" d="M 107.5,17.5 C 115.454,16.7167 120.621,20.0501 123,27.5C 123.192,37.2138 123.692,46.8805 124.5,56.5C 122.955,57.4519 121.288,57.7852 119.5,57.5C 119.657,56.1266 119.49,54.7932 119,53.5C 112.241,59.6386 105.241,59.9719 98,54.5C 93.4914,43.2833 97.3248,36.45 109.5,34C 112.482,33.502 115.482,33.3354 118.5,33.5C 118.619,23.7972 113.953,20.2972 104.5,23C 102.702,24.5053 100.868,24.6719 99,23.5C 98.2506,22.365 98.4173,21.365 99.5,20.5C 102.282,19.4844 104.949,18.4844 107.5,17.5 Z M 110.5,37.5 C 113.167,37.5 115.833,37.5 118.5,37.5C 120.868,50.2966 115.868,55.4633 103.5,53C 99.3541,48.3747 99.6875,44.0414 104.5,40C 106.723,39.4338 108.723,38.6005 110.5,37.5 Z"/></g>
<g><path style="opacity:0.771" fill="#fefffe" d="M 159.5,18.5 C 159.5,19.5 159.5,20.5 159.5,21.5C 153.65,35.8557 147.483,50.1891 141,64.5C 138.304,68.3607 135.137,71.694 131.5,74.5C 130.167,74.5 128.833,74.5 127.5,74.5C 127.461,73.4168 127.127,72.4168 126.5,71.5C 133.433,68.3991 138.1,63.2324 140.5,56C 135.528,43.5806 130.861,31.0806 126.5,18.5C 128.144,18.2865 129.644,18.6198 131,19.5C 135.284,29.7321 139.284,40.0655 143,50.5C 147.196,40.2452 151.196,29.9119 155,19.5C 156.356,18.6198 157.856,18.2865 159.5,18.5 Z"/></g>
</svg>
