<svg width="408" height="214" viewBox="0 0 408 214" fill="none" xmlns="http://www.w3.org/2000/svg">
<g filter="url(#filter0_dd_1217_4945)">
<rect x="40.5" y="20.8081" width="327" height="131.825" rx="24.5" stroke="#D6DCE5"/>
<path d="M140.963 88.5492C138 100.433 125.964 107.665 114.079 104.702C102.198 101.739 94.9661 89.702 97.9303 77.819C100.892 65.934 112.928 58.701 124.809 61.6638C136.694 64.6266 143.925 76.6648 140.963 88.5492Z" fill="#F7931A"/>
<path d="M129.223 80.0227C129.665 77.0711 127.417 75.4843 124.344 74.4258L125.341 70.4273L122.907 69.8208L121.937 73.7138C121.297 73.5544 120.64 73.404 119.987 73.2549L120.964 69.3362L118.532 68.7297L117.534 72.7267C117.005 72.6061 116.485 72.4869 115.98 72.3614L115.983 72.3489L112.626 71.5108L111.979 74.1104C111.979 74.1104 113.785 74.5242 113.747 74.5499C114.732 74.7959 114.91 75.4483 114.881 75.9654L113.745 80.5205C113.813 80.5378 113.901 80.5627 113.998 80.6016C113.917 80.5815 113.83 80.5593 113.741 80.5378L112.149 86.9188C112.029 87.2182 111.723 87.6674 111.034 87.4969C111.058 87.5323 109.265 87.0553 109.265 87.0553L108.057 89.8413L111.224 90.6309C111.813 90.7785 112.391 90.9331 112.959 91.0787L111.952 95.1229L114.383 95.7294L115.38 91.7282C116.045 91.9085 116.689 92.0749 117.32 92.2315L116.326 96.214L118.76 96.8205L119.767 92.784C123.917 93.5694 127.038 93.2526 128.352 89.4989C129.41 86.4765 128.299 84.7331 126.115 83.5962C127.706 83.2295 128.904 82.1835 129.223 80.0227ZM123.662 87.8206C122.91 90.843 117.821 89.2091 116.171 88.7994L117.508 83.4416C119.158 83.8534 124.448 84.6686 123.662 87.8206ZM124.415 79.9791C123.729 82.7283 119.493 81.3315 118.119 80.9891L119.331 76.1297C120.705 76.4721 125.13 77.1113 124.415 79.9791Z" fill="white"/>
<path d="M162.269 74.4244C164.068 74.4244 165.622 74.7467 166.928 75.3796C168.24 76.0188 169.323 76.8797 170.192 77.9625C171.049 79.0509 171.686 80.3229 172.098 81.7807C172.507 83.2427 172.712 84.8142 172.712 86.4966C172.712 89.0809 172.239 91.5224 171.283 93.8238C170.327 96.1287 169.03 98.1279 167.38 99.8332C165.732 101.536 163.785 102.879 161.541 103.871C159.299 104.864 156.863 105.36 154.247 105.36C153.908 105.36 153.314 105.35 152.473 105.333C151.633 105.316 150.668 105.229 149.586 105.083C148.498 104.931 147.347 104.706 146.132 104.406C144.917 104.11 143.764 103.696 142.678 103.171L152.391 62.3577L161.091 61.0094L157.613 75.4926C158.357 75.1571 159.107 74.8972 159.856 74.7079C160.605 74.5214 161.41 74.4244 162.269 74.4244ZM154.972 98.4586C156.282 98.4586 157.516 98.1363 158.676 97.5034C159.839 96.8698 160.843 96.0144 161.684 94.9489C162.525 93.8786 163.19 92.6731 163.676 91.3262C164.161 89.9793 164.406 88.5741 164.406 87.1122C164.406 85.3161 164.106 83.9151 163.508 82.9023C162.91 81.8937 161.803 81.3863 160.195 81.3863C159.668 81.3863 158.99 81.4868 158.148 81.6663C157.304 81.857 156.548 82.2528 155.871 82.8482L152.168 98.2292C152.391 98.2687 152.588 98.3061 152.757 98.3414C152.922 98.3796 153.104 98.4066 153.286 98.4253C153.478 98.4468 153.698 98.4579 153.963 98.4579C154.229 98.4579 154.561 98.4586 154.972 98.4586Z" fill="#4D4D4D"/>
<path d="M181.736 104.575H173.427L180.444 75.0469H188.811L181.736 104.575ZM185.78 71.4491C184.62 71.4491 183.569 71.1039 182.636 70.4121C181.695 69.7244 181.229 68.6659 181.229 67.2393C181.229 66.4546 181.388 65.7184 181.705 65.0238C182.026 64.3306 182.445 63.7337 182.97 63.2263C183.495 62.723 184.103 62.321 184.794 62.018C185.488 61.72 186.227 61.5709 187.015 61.5709C188.174 61.5709 189.22 61.9161 190.156 62.608C191.089 63.3032 191.559 64.3618 191.559 65.7808C191.559 66.5683 191.4 67.3072 191.081 68.0004C190.764 68.6936 190.345 69.2905 189.819 69.7979C189.299 70.3019 188.685 70.7025 187.996 71.0027C187.301 71.3056 186.565 71.4491 185.78 71.4491Z" fill="#4D4D4D"/>
<path d="M196.091 67.6913L204.795 66.343L202.658 75.0469H211.978L210.295 81.8944H201.031L198.563 92.2232C198.335 93.0842 198.206 93.8883 198.17 94.6356C198.129 95.3863 198.224 96.031 198.449 96.5738C198.672 97.1179 199.074 97.5373 199.656 97.834C200.235 98.1356 201.065 98.2874 202.154 98.2874C203.05 98.2874 203.923 98.2021 204.768 98.033C205.607 97.8666 206.458 97.6351 207.319 97.3321L207.938 103.735C206.815 104.146 205.6 104.501 204.289 104.799C202.977 105.101 201.424 105.246 199.628 105.246C197.047 105.246 195.045 104.863 193.619 104.1C192.196 103.331 191.189 102.281 190.587 100.951C189.993 99.6267 189.727 98.0995 189.801 96.379C189.878 94.6543 190.138 92.8415 190.587 90.9324L196.091 67.6913Z" fill="#4D4D4D"/>
<path d="M211.612 92.7875C211.612 90.2441 212.023 87.8456 212.846 85.6003C213.668 83.3529 214.851 81.3877 216.386 79.7011C217.916 78.0228 219.78 76.6933 221.974 75.7172C224.158 74.7467 226.603 74.2573 229.298 74.2573C230.984 74.2573 232.49 74.4168 233.816 74.7363C235.147 75.0587 236.351 75.4753 237.44 75.998L234.574 82.5141C233.826 82.2105 233.048 81.9429 232.245 81.7003C231.441 81.4528 230.459 81.3336 229.298 81.3336C226.525 81.3336 224.332 82.2895 222.7 84.1952C221.075 86.1022 220.256 88.6691 220.256 91.8891C220.256 93.7975 220.668 95.3405 221.494 96.5211C222.316 97.7016 223.835 98.2888 226.04 98.2888C227.128 98.2888 228.179 98.1751 229.185 97.9533C230.198 97.7286 231.093 97.4458 231.881 97.1117L232.502 103.791C231.451 104.199 230.292 104.567 229.02 104.889C227.746 105.201 226.229 105.362 224.471 105.362C222.149 105.362 220.184 105.023 218.576 104.354C216.968 103.674 215.639 102.772 214.592 101.63C213.54 100.485 212.785 99.1476 212.317 97.6129C211.85 96.0795 211.612 94.4685 211.612 92.7875Z" fill="#4D4D4D"/>
<path d="M248.524 105.361C246.54 105.361 244.818 105.059 243.357 104.46C241.899 103.862 240.693 103.023 239.738 101.934C238.782 100.852 238.067 99.5684 237.577 98.0898C237.086 96.6119 236.851 94.9752 236.851 93.1819C236.851 90.9324 237.212 88.6837 237.942 86.4411C238.668 84.1938 239.746 82.1745 241.173 80.3797C242.588 78.5822 244.335 77.1126 246.391 75.9668C248.445 74.8285 250.807 74.2559 253.461 74.2559C255.408 74.2559 257.122 74.5589 258.603 75.1571C260.077 75.754 261.292 76.6004 262.252 77.6832C263.202 78.7715 263.923 80.0491 264.409 81.5298C264.897 83.0049 265.139 84.6457 265.139 86.4405C265.139 88.683 264.782 90.9317 264.075 93.1812C263.367 95.4196 262.317 97.4437 260.931 99.2426C259.547 101.037 257.817 102.506 255.739 103.647C253.663 104.788 251.256 105.361 248.524 105.361ZM252.677 81.3329C251.445 81.3329 250.356 81.6906 249.423 82.397C248.488 83.1117 247.702 84.0101 247.068 85.0935C246.427 86.1819 245.953 87.3687 245.632 88.6587C245.313 89.9516 245.157 91.1737 245.157 92.3348C245.157 94.2085 245.46 95.6677 246.054 96.718C246.656 97.7626 247.738 98.2881 249.311 98.2881C250.547 98.2881 251.631 97.9332 252.569 97.2191C253.499 96.51 254.286 95.6109 254.924 94.5253C255.56 93.4426 256.039 92.2523 256.36 90.9602C256.674 89.6715 256.835 88.4424 256.835 87.2834C256.835 85.4145 256.534 83.9518 255.934 82.903C255.335 81.8583 254.248 81.3329 252.677 81.3329Z" fill="#4D4D4D"/>
<path d="M274.196 104.575H265.88L272.897 75.0469H281.267L274.196 104.575ZM278.233 71.4491C277.074 71.4491 276.023 71.1039 275.092 70.4121C274.156 69.7244 273.686 68.6659 273.686 67.2393C273.686 66.4546 273.847 65.7184 274.164 65.0238C274.481 64.3306 274.903 63.7337 275.429 63.2263C275.951 62.723 276.564 62.321 277.253 62.018C277.943 61.72 278.682 61.5709 279.467 61.5709C280.629 61.5709 281.678 61.9161 282.613 62.608C283.548 63.3032 284.02 64.3618 284.02 65.7808C284.02 66.5683 283.852 67.3072 283.538 68.0004C283.224 68.6936 282.802 69.2905 282.279 69.7979C281.752 70.3019 281.146 70.7025 280.456 71.0027C279.76 71.3056 279.022 71.4491 278.233 71.4491Z" fill="#4D4D4D"/>
<path d="M287.253 76.3924C287.883 76.208 288.588 75.9862 289.354 75.7449C290.122 75.5037 290.981 75.2791 291.941 75.0767C292.89 74.868 293.961 74.6989 295.139 74.5679C296.316 74.4341 297.658 74.3689 299.149 74.3689C303.532 74.3689 306.553 75.6451 308.221 78.1899C309.887 80.7347 310.176 84.2173 309.094 88.6317L305.272 104.575H296.908L300.612 88.9672C300.838 87.9925 301.016 87.0505 301.147 86.1299C301.279 85.2176 301.271 84.4135 301.117 83.7175C300.969 83.0299 300.621 82.467 300.081 82.031C299.533 81.6019 298.704 81.3863 297.581 81.3863C296.497 81.3863 295.395 81.5027 294.27 81.7273L288.823 104.575H280.456L287.253 76.3924Z" fill="#4D4D4D"/>
</g>
<defs>
<filter id="filter0_dd_1217_4945" x="0" y="0.308105" width="408" height="212.825" filterUnits="userSpaceOnUse" color-interpolation-filters="sRGB">
<feFlood flood-opacity="0" result="BackgroundImageFix"/>
<feColorMatrix in="SourceAlpha" type="matrix" values="0 0 0 0 0 0 0 0 0 0 0 0 0 0 0 0 0 0 127 0" result="hardAlpha"/>
<feOffset dy="2"/>
<feGaussianBlur stdDeviation="10"/>
<feColorMatrix type="matrix" values="0 0 0 0 0.717647 0 0 0 0 0.717647 0 0 0 0 0.717647 0 0 0 0.08 0"/>
<feBlend mode="normal" in2="BackgroundImageFix" result="effect1_dropShadow_1217_4945"/>
<feColorMatrix in="SourceAlpha" type="matrix" values="0 0 0 0 0 0 0 0 0 0 0 0 0 0 0 0 0 0 127 0" result="hardAlpha"/>
<feOffset dy="20"/>
<feGaussianBlur stdDeviation="20"/>
<feColorMatrix type="matrix" values="0 0 0 0 0.717647 0 0 0 0 0.717647 0 0 0 0 0.717647 0 0 0 0.08 0"/>
<feBlend mode="normal" in2="effect1_dropShadow_1217_4945" result="effect2_dropShadow_1217_4945"/>
<feBlend mode="normal" in="SourceGraphic" in2="effect2_dropShadow_1217_4945" result="shape"/>
</filter>
</defs>
</svg>
