<?xml version="1.0" encoding="UTF-8"?>
<!DOCTYPE svg PUBLIC "-//W3C//DTD SVG 1.1//EN" "http://www.w3.org/Graphics/SVG/1.1/DTD/svg11.dtd">
<svg xmlns="http://www.w3.org/2000/svg" version="1.1" width="255px" height="75px" style="shape-rendering:geometricPrecision; text-rendering:geometricPrecision; image-rendering:optimizeQuality; fill-rule:evenodd; clip-rule:evenodd" xmlns:xlink="http://www.w3.org/1999/xlink">
<g><path style="opacity:0.97" fill="#f7921a" d="M 31.5,0.5 C 59.8292,0.993949 73.6625,15.3273 73,43.5C 66.8394,64.8327 52.6727,74.666 30.5,73C 9.80443,66.9605 -0.0289068,53.1272 1,31.5C 5.35772,15.3098 15.5244,4.97651 31.5,0.5 Z"/></g>
<g><path style="opacity:1" fill="#fff9f4" d="M 35.5,14.5 C 36.8333,14.5 38.1667,14.5 39.5,14.5C 39.3259,16.861 38.9926,19.1944 38.5,21.5C 39.5,21.5 40.5,21.5 41.5,21.5C 41.1826,17.8284 42.8493,16.1617 46.5,16.5C 45.833,18.8194 45.6664,21.1527 46,23.5C 54.7026,27.2219 55.5359,32.0552 48.5,38C 53.619,42.5073 53.619,47.174 48.5,52C 44.9164,53.0734 41.2498,53.7401 37.5,54C 36.6198,55.3561 36.2865,56.8561 36.5,58.5C 35.1667,58.5 33.8333,58.5 32.5,58.5C 32.9926,56.1944 33.3259,53.861 33.5,51.5C 32.1779,51.33 31.0113,51.6634 30,52.5C 29.7978,54.2556 29.2978,55.9223 28.5,57.5C 27.0981,57.1345 26.0981,56.3012 25.5,55C 27.263,49.6751 25.263,47.5084 19.5,48.5C 19.3188,44.4981 20.9854,42.9981 24.5,44C 26.6242,38.1749 28.2908,32.1749 29.5,26C 28.6918,23.9251 27.3584,22.2584 25.5,21C 25.6301,19.9412 26.1301,19.1079 27,18.5C 29.3822,19.5541 31.8822,20.2208 34.5,20.5C 34.5172,18.4352 34.8505,16.4352 35.5,14.5 Z"/></g>
<g><path style="opacity:0.882" fill="#fefffe" d="M 101.5,14.5 C 102.675,14.281 103.675,14.6143 104.5,15.5C 103.026,19.7307 102.026,24.064 101.5,28.5C 110.679,27.0014 115.345,31.0014 115.5,40.5C 115.498,49.6597 111.165,55.8264 102.5,59C 96.8125,59.9735 91.3125,59.4735 86,57.5C 88.1844,43.4198 91.0177,29.4198 94.5,15.5C 97.0593,15.8016 99.3926,15.4682 101.5,14.5 Z M 101.5,35.5 C 106.254,36.6179 107.754,39.6179 106,44.5C 104.419,50.0369 100.919,52.0369 95.5,50.5C 96.8212,46.2159 97.9878,41.8826 99,37.5C 99.9947,36.9341 100.828,36.2674 101.5,35.5 Z"/></g>
<g><path style="opacity:0.838" fill="#fefffe" d="M 126.5,15.5 C 133.208,14.5342 135.541,17.2009 133.5,23.5C 128.897,27.6971 125.564,26.8637 123.5,21C 123.863,18.8077 124.863,16.9744 126.5,15.5 Z"/></g>
<g><path style="opacity:0.831" fill="#fefffe" d="M 218.5,15.5 C 224.496,14.3327 226.996,16.6661 226,22.5C 221.789,27.9515 218.289,27.6182 215.5,21.5C 215.628,19.0452 216.628,17.0452 218.5,15.5 Z"/></g>
<g><path style="opacity:0.862" fill="#fefffe" d="M 146.5,19.5 C 147.239,19.369 147.906,19.5357 148.5,20C 147.347,22.6157 146.347,25.2824 145.5,28C 148.482,28.498 151.482,28.6646 154.5,28.5C 154.167,31.1667 153.833,33.8333 153.5,36.5C 150.167,36.5 146.833,36.5 143.5,36.5C 142.342,41.1186 141.842,45.7853 142,50.5C 144.466,51.7883 146.966,51.7883 149.5,50.5C 150.48,53.0865 150.813,55.7531 150.5,58.5C 146.204,59.4625 141.871,59.6292 137.5,59C 133.969,57.4707 131.969,54.804 131.5,51C 133.272,41.4107 135.439,31.9107 138,22.5C 140.714,21.0035 143.547,20.0035 146.5,19.5 Z"/></g>
<g><path style="opacity:0.848" fill="#fefffe" d="M 168.5,27.5 C 172.856,27.2557 176.856,28.2557 180.5,30.5C 179.218,32.1792 178.218,34.0126 177.5,36C 166.724,34.1089 162.224,38.6089 164,49.5C 165.299,50.9797 166.966,51.6464 169,51.5C 171.199,51.0393 173.366,50.8727 175.5,51C 175.263,53.2884 175.263,55.7884 175.5,58.5C 156.741,61.9713 150.241,54.6379 156,36.5C 159.236,32.0818 163.402,29.0818 168.5,27.5 Z"/></g>
<g><path style="opacity:0.88" fill="#fefffe" d="M 193.5,27.5 C 205.292,28.3691 209.792,34.7024 207,46.5C 203.551,56.9322 196.384,61.0988 185.5,59C 179.333,55.1548 177.166,49.6548 179,42.5C 181.386,34.9498 186.219,29.9498 193.5,27.5 Z M 193.5,35.5 C 197.062,35.5638 198.729,37.3972 198.5,41C 198.737,46.3938 196.403,49.8938 191.5,51.5C 190.558,51.3918 189.725,51.0585 189,50.5C 188.333,47.1667 188.333,43.8333 189,40.5C 190.025,38.313 191.525,36.6464 193.5,35.5 Z"/></g>
<g><path style="opacity:0.863" fill="#fefffe" d="M 238.5,27.5 C 248.941,27.4309 253.441,32.4309 252,42.5C 250.287,47.3964 248.954,52.3964 248,57.5C 247.333,58.1667 246.667,58.8333 246,59.5C 243.868,58.2203 241.702,58.2203 239.5,59.5C 239.167,58.8333 238.833,58.1667 238.5,57.5C 240.693,50.5629 241.693,43.5629 241.5,36.5C 238.843,34.8858 237.01,35.5525 236,38.5C 234.647,45.2462 232.98,51.9129 231,58.5C 227.921,58.6651 224.754,58.6651 221.5,58.5C 224.307,48.9384 226.64,39.2717 228.5,29.5C 232.04,29.2474 235.373,28.5808 238.5,27.5 Z"/></g>
<g><path style="opacity:1" fill="#f7901e" d="M 36.5,26.5 C 40.6391,25.9026 43.6391,27.4026 45.5,31C 45.2409,32.2613 44.5742,33.2613 43.5,34C 40.854,34.4974 38.1873,34.6641 35.5,34.5C 35.5751,31.7938 35.9084,29.1272 36.5,26.5 Z"/></g>
<g><path style="opacity:0.84" fill="#fefffe" d="M 122.5,28.5 C 125.5,28.5 128.5,28.5 131.5,28.5C 129.801,38.6309 127.468,48.6309 124.5,58.5C 121.579,59.4066 118.579,59.7399 115.5,59.5C 117.706,49.1337 120.04,38.8004 122.5,28.5 Z"/></g>
<g><path style="opacity:0.842" fill="#fefffe" d="M 214.5,28.5 C 217.5,28.5 220.5,28.5 223.5,28.5C 221.99,39.0446 219.323,49.2113 215.5,59C 212.854,59.4974 210.187,59.6641 207.5,59.5C 209.677,49.127 212.01,38.7937 214.5,28.5 Z"/></g>
<g><path style="opacity:1" fill="#f7901a" d="M 34.5,37.5 C 37.5744,38.3563 40.4078,39.6896 43,41.5C 43.7429,43.4406 43.5762,45.2739 42.5,47C 33.0712,49.2789 30.4045,46.1123 34.5,37.5 Z"/></g>
</svg>
