<?xml version="1.0" standalone="no"?>
<!DOCTYPE svg PUBLIC "-//W3C//DTD SVG 20010904//EN"
 "http://www.w3.org/TR/2001/REC-SVG-20010904/DTD/svg10.dtd">
<svg version="1.0" xmlns="http://www.w3.org/2000/svg"
 width="247.000000pt" height="96.000000pt" viewBox="0 0 247.000000 96.000000"
 preserveAspectRatio="xMidYMid meet">

<g transform="translate(0.000000,96.000000) scale(0.100000,-0.100000)"
fill="#000000" stroke="none">
<path d="M370 934 c-187 -32 -263 -105 -301 -287 -24 -116 -24 -208 0 -323 39
-188 130 -265 335 -284 150 -15 299 1 374 39 73 37 123 93 154 174 21 57 23
77 23 242 0 169 -1 183 -24 235 -56 126 -130 178 -290 204 -112 19 -157 19
-271 0z m-3 -338 c49 -58 13 -146 -62 -146 -33 0 -35 -2 -35 -35 0 -31 -3 -35
-25 -35 l-25 0 0 126 0 126 62 -4 c51 -4 65 -9 85 -32z m164 -26 c13 -8 19 -7
19 0 0 6 10 10 23 8 21 -3 22 -8 25 -100 l3 -98 -26 0 c-14 0 -25 5 -25 12 0
9 -3 9 -12 0 -21 -21 -81 -14 -111 13 -22 21 -27 35 -27 71 0 77 70 126 131
94z m154 -48 c11 -30 25 -53 30 -51 6 2 19 26 30 54 15 37 26 51 43 53 12 2
22 -2 22 -8 0 -10 -37 -106 -60 -155 -5 -11 -18 -42 -28 -70 -14 -42 -22 -51
-45 -53 -32 -4 -32 -6 -7 52 l21 46 -30 67 c-16 38 -33 81 -37 96 -6 26 -4 28
17 25 18 -2 28 -16 44 -56z"/>
<path d="M270 537 c0 -43 1 -43 30 -39 52 8 48 82 -5 82 -23 0 -25 -4 -25 -43z"/>
<path d="M468 519 c-37 -21 -10 -99 34 -99 23 0 48 33 48 63 0 39 -44 59 -82
36z"/>
</g>
</svg>
