<?xml version="1.0" standalone="no"?>
<!DOCTYPE svg PUBLIC "-//W3C//DTD SVG 20010904//EN"
 "http://www.w3.org/TR/2001/REC-SVG-20010904/DTD/svg10.dtd">
<svg version="1.0" xmlns="http://www.w3.org/2000/svg"
 width="394.000000pt" height="96.000000pt" viewBox="0 0 394.000000 96.000000"
 preserveAspectRatio="xMidYMid meet">

<g transform="translate(0.000000,96.000000) scale(0.100000,-0.100000)"
fill="#000000" stroke="none">
<path d="M365 919 c-3 -8 -6 -83 -7 -167 l-3 -153 -120 -54 c-168 -75 -164
-72 -123 -94 18 -10 81 -45 139 -79 58 -34 113 -62 121 -62 11 0 241 125 286
156 2 1 -11 23 -27 50 -17 27 -40 65 -51 84 -11 19 -29 49 -40 65 -11 17 -29
46 -40 65 -11 19 -38 64 -60 99 -22 34 -40 67 -40 71 0 4 -7 13 -15 20 -12 10
-16 10 -20 -1z"/>
<path d="M636 401 c-5 -8 -109 -70 -201 -121 -79 -43 -75 -35 -75 -147 0 -76
3 -103 13 -102 16 0 289 379 274 379 -3 0 -8 -4 -11 -9z"/>
</g>
</svg>
