<?xml version="1.0" standalone="no"?>
<!DOCTYPE svg PUBLIC "-//W3C//DTD SVG 20010904//EN"
 "http://www.w3.org/TR/2001/REC-SVG-20010904/DTD/svg10.dtd">
<svg version="1.0" xmlns="http://www.w3.org/2000/svg"
 width="394.000000pt" height="96.000000pt" viewBox="0 0 394.000000 96.000000"
 preserveAspectRatio="xMidYMid meet">

<g transform="translate(0.000000,96.000000) scale(0.100000,-0.100000)"
fill="#ffff" stroke="none">
<path d="M85 898 c-3 -13 -4 -205 -3 -428 l3 -405 78 -3 77 -3 0 140 c0 163
-15 147 140 154 108 5 151 22 206 83 46 50 57 98 52 226 -4 102 -6 110 -35
145 -65 81 -171 113 -379 113 -130 0 -134 -1 -139 -22z m340 -148 c52 -52 49
-183 -4 -232 -31 -27 -92 -43 -147 -36 l-29 3 -3 149 -3 148 81 -3 c69 -4 83
-7 105 -29z"/>
<path d="M851 758 c-29 -90 -57 -172 -62 -183 -5 -11 -29 -83 -54 -160 -25
-77 -50 -149 -55 -160 -18 -39 -58 -180 -53 -187 6 -10 124 -10 140 0 6 4 21
36 33 72 36 108 22 100 181 100 l140 0 14 -33 c8 -19 22 -58 33 -88 l18 -54
78 -3 c77 -3 78 -3 73 20 -7 29 -36 116 -47 143 -5 11 -36 101 -70 200 -33 99
-84 250 -113 335 l-53 155 -75 3 -75 3 -53 -163z m158 -173 c11 -33 31 -90 44
-127 13 -37 22 -70 19 -73 -7 -7 -177 -7 -184 0 -7 7 74 248 86 257 13 9 11
13 35 -57z"/>
<path d="M1318 903 c13 -26 47 -100 72 -158 12 -27 35 -77 50 -110 15 -33 39
-87 54 -120 15 -33 32 -69 39 -80 8 -13 14 -84 17 -195 l5 -175 75 0 75 0 5
165 c3 91 10 176 16 190 20 43 84 182 119 255 62 130 105 227 105 236 0 5 -37
9 -83 9 l-83 0 -28 -62 c-16 -35 -46 -100 -68 -145 -21 -45 -38 -87 -38 -92 0
-24 -26 -9 -39 22 -22 51 -91 199 -111 237 l-19 35 -86 3 c-80 3 -85 2 -77
-15z"/>
</g>
</svg>
