<?xml version="1.0" standalone="no"?>
<!DOCTYPE svg PUBLIC "-//W3C//DTD SVG 20010904//EN"
 "http://www.w3.org/TR/2001/REC-SVG-20010904/DTD/svg10.dtd">
<svg version="1.0" xmlns="http://www.w3.org/2000/svg"
 width="280.000000pt" height="96.000000pt" viewBox="0 0 280.000000 96.000000"
 preserveAspectRatio="xMidYMid meet">

<g transform="translate(0.000000,96.000000) scale(0.100000,-0.100000)"
fill="#000000" stroke="none">
<path d="M1948 924 c-30 -16 -58 -61 -58 -93 0 -11 8 -36 17 -55 19 -41 66
-61 117 -52 90 17 113 142 36 194 -38 25 -73 28 -112 6z"/>
<path d="M263 876 c-164 -38 -263 -177 -227 -317 18 -70 48 -111 111 -152 50
-33 69 -39 219 -62 77 -12 109 -71 62 -115 -56 -52 -194 -51 -366 4 l-23 8 3
-99 3 -98 50 -13 c28 -8 113 -16 190 -19 123 -5 148 -3 207 15 106 33 169 87
200 171 31 86 18 173 -38 246 -39 52 -151 103 -241 111 -95 9 -133 31 -133 79
0 29 5 37 32 51 57 30 192 18 346 -31 22 -7 22 -6 22 88 0 94 0 95 -27 106
-83 33 -296 48 -390 27z"/>
<path d="M925 872 c-38 -7 -89 -18 -112 -24 l-43 -11 0 -408 0 -409 115 0 115
0 0 120 c0 74 4 120 10 120 13 0 58 -98 80 -175 l17 -60 137 -3 138 -3 -7 33
c-4 18 -36 92 -71 165 l-65 132 36 50 c42 58 78 124 105 196 11 28 20 51 20
53 0 1 -58 2 -130 2 l-130 0 -29 -59 c-37 -73 -89 -151 -102 -151 -5 0 -10 97
-11 223 l-3 222 -70 -13z"/>
<path d="M2328 870 c-54 -9 -100 -19 -103 -22 -3 -3 -5 -189 -5 -414 l0 -409
105 0 105 0 0 429 c0 236 -1 430 -2 430 -2 1 -47 -5 -100 -14z"/>
<path d="M2660 869 c-25 -4 -60 -11 -77 -14 l-33 -6 0 -414 0 -415 110 0 110
0 0 430 0 430 -32 -1 c-18 -1 -53 -5 -78 -10z"/>
<path d="M1644 646 c-53 -13 -119 -49 -142 -76 -7 -8 -22 -33 -34 -55 -21 -37
-23 -56 -26 -267 l-4 -228 111 0 111 0 0 163 c0 190 13 248 61 272 15 8 38 15
51 15 44 0 49 11 46 101 l-3 84 -60 2 c-33 1 -83 -4 -111 -11z"/>
<path d="M1890 345 c0 -168 0 -308 0 -312 0 -5 49 -9 110 -11 l110 -3 0 316 0
315 -110 0 -110 0 0 -305z"/>
</g>
</svg>
