<?xml version="1.0" standalone="no"?>
<!DOCTYPE svg PUBLIC "-//W3C//DTD SVG 20010904//EN"
 "http://www.w3.org/TR/2001/REC-SVG-20010904/DTD/svg10.dtd">
<svg version="1.0" xmlns="http://www.w3.org/2000/svg"
 width="315.000000pt" height="96.000000pt" viewBox="0 0 315.000000 96.000000"
 preserveAspectRatio="xMidYMid meet">

<g transform="translate(0.000000,96.000000) scale(0.100000,-0.100000)"
fill="#ffff" stroke="none">
<path d="M50 928 c0 -6 6 -24 14 -41 8 -18 40 -97 71 -177 31 -80 62 -158 69
-175 8 -16 19 -48 26 -70 7 -22 16 -44 20 -50 4 -5 16 -35 28 -65 11 -30 41
-107 67 -170 25 -63 51 -126 56 -138 9 -22 20 -11 152 151 78 95 192 235 254
310 l111 135 -81 80 c-94 91 -104 97 -172 106 -27 4 -95 15 -150 26 -55 10
-163 30 -240 45 -77 14 -159 29 -182 34 -27 5 -43 5 -43 -1z m272 -83 c269
-52 343 -67 348 -72 3 -3 -7 -15 -21 -26 -15 -12 -59 -48 -98 -80 l-71 -59
-39 31 c-96 76 -256 213 -259 222 -5 12 -12 13 140 -16z m-144 -42 c16 -16 70
-62 121 -103 50 -41 108 -89 127 -106 l35 -30 -16 -125 c-24 -196 -36 -283
-39 -287 -2 -2 -12 18 -22 45 -9 26 -28 72 -41 102 -13 30 -27 67 -30 82 -3
16 -9 29 -13 29 -4 0 -13 19 -19 43 -7 23 -22 61 -32 84 -10 23 -19 45 -19 48
0 4 -7 21 -15 38 -7 18 -23 55 -33 82 -11 28 -27 67 -36 88 -19 44 -8 48 32
10z m607 -94 c41 -40 47 -51 35 -59 -8 -5 -25 -10 -38 -10 -13 0 -68 -9 -123
-21 -56 -11 -104 -18 -107 -14 -4 3 9 18 28 33 19 15 60 48 90 74 30 26 57 47
60 47 3 0 28 -22 55 -50z m-17 -185 c-131 -159 -189 -230 -210 -254 -12 -14
-37 -46 -57 -73 -40 -54 -52 -59 -46 -19 2 15 14 104 26 198 l22 170 66 13
c111 23 205 39 234 40 27 1 26 -1 -35 -75z"/>
</g>
</svg>
