<?xml version="1.0" encoding="UTF-8"?>
<!DOCTYPE svg PUBLIC "-//W3C//DTD SVG 1.1//EN" "http://www.w3.org/Graphics/SVG/1.1/DTD/svg11.dtd">
<svg xmlns="http://www.w3.org/2000/svg" version="1.1" width="307px" height="75px" style="shape-rendering:geometricPrecision; text-rendering:geometricPrecision; image-rendering:optimizeQuality; fill-rule:evenodd; clip-rule:evenodd" xmlns:xlink="http://www.w3.org/1999/xlink">
<g><path style="opacity:0.931" fill="#333333" d="M 26.5,0.5 C 34.403,12.6294 42.0697,24.9627 49.5,37.5C 41.4759,34.9383 33.8092,31.6049 26.5,27.5C 26.5,18.5 26.5,9.5 26.5,0.5 Z"/></g>
<g><path style="opacity:0.93" fill="#8b8b8b" d="M 26.5,0.5 C 26.5,9.5 26.5,18.5 26.5,27.5C 18.7231,31.3891 10.7231,34.7224 2.5,37.5C 10.2645,24.9597 18.2645,12.6264 26.5,0.5 Z"/></g>
<g><path style="opacity:0.819" fill="#fefffe" d="M 117.5,12.5 C 119.792,12.2436 121.959,12.5769 124,13.5C 124.171,18.5329 124.671,23.5329 125.5,28.5C 131.864,23.8063 137.03,24.8063 141,31.5C 141.216,39.036 141.716,46.536 142.5,54C 140.187,57.0372 137.687,57.2039 135,54.5C 134.667,47.5 134.333,40.5 134,33.5C 130.571,31.9865 127.571,32.6532 125,35.5C 124.5,42.4921 124.334,49.4921 124.5,56.5C 122.208,56.7564 120.041,56.4231 118,55.5C 117.5,41.1705 117.333,26.8372 117.5,12.5 Z"/></g>
<g><path style="opacity:0.825" fill="#fefffe" d="M 98.5,17.5 C 100.5,17.5 102.5,17.5 104.5,17.5C 104.5,20.5 104.5,23.5 104.5,26.5C 106.833,26.5 109.167,26.5 111.5,26.5C 111.5,28.1667 111.5,29.8333 111.5,31.5C 109.167,31.5 106.833,31.5 104.5,31.5C 104.334,37.5092 104.501,43.5092 105,49.5C 106.734,50.2489 108.567,50.7489 110.5,51C 111.996,55.3067 110.329,57.14 105.5,56.5C 102.209,56.7205 99.7089,55.3872 98,52.5C 97.5004,45.5079 97.3337,38.5079 97.5,31.5C 96.1667,31.5 94.8333,31.5 93.5,31.5C 93.5,29.8333 93.5,28.1667 93.5,26.5C 94.8333,26.5 96.1667,26.5 97.5,26.5C 97.2641,23.3915 97.5975,20.3915 98.5,17.5 Z"/></g>
<g><path style="opacity:0.816" fill="#fefffe" d="M 72.5,25.5 C 85.1538,24.826 90.4871,30.826 88.5,43.5C 82.8333,43.5 77.1667,43.5 71.5,43.5C 71.4887,48.1554 73.8221,50.4888 78.5,50.5C 80.9498,50.2389 83.2831,49.5723 85.5,48.5C 86.9744,49.4363 87.9744,50.7697 88.5,52.5C 80.954,58.1583 73.7874,57.8249 67,51.5C 63.7179,44.527 63.7179,37.527 67,30.5C 68.7297,28.5981 70.563,26.9314 72.5,25.5 Z M 73.5,31.5 C 78.4292,30.3047 81.4292,32.1381 82.5,37C 78.7887,37.8253 75.122,37.6586 71.5,36.5C 72.1744,34.8045 72.8411,33.1379 73.5,31.5 Z"/></g>
<g><path style="opacity:0.811" fill="#fefffe" d="M 157.5,25.5 C 169.253,25.2516 174.253,30.9182 172.5,42.5C 166.862,43.3299 161.196,43.8299 155.5,44C 158.179,50.8589 162.846,52.3589 169.5,48.5C 172.168,49.515 172.834,51.1817 171.5,53.5C 164.034,58.0701 157.201,57.4035 151,51.5C 147.429,43.9765 147.763,36.6432 152,29.5C 153.812,28.0229 155.645,26.6896 157.5,25.5 Z M 158.5,31.5 C 163.787,30.1384 166.454,32.1384 166.5,37.5C 162.894,37.2108 159.394,37.5442 156,38.5C 155.927,35.8869 156.761,33.5535 158.5,31.5 Z"/></g>
<g><path style="opacity:0.808" fill="#fefffe" d="M 181.5,25.5 C 184.112,26.2775 185.945,27.9441 187,30.5C 189.474,26.6811 192.974,25.1811 197.5,26C 198.333,28.0811 198.333,30.2478 197.5,32.5C 194.03,31.8748 191.196,32.8748 189,35.5C 188.5,42.4921 188.334,49.4921 188.5,56.5C 186.167,56.5 183.833,56.5 181.5,56.5C 181.666,48.8261 181.5,41.1594 181,33.5C 178.942,30.5875 179.109,27.9209 181.5,25.5 Z"/></g>
<g><path style="opacity:0.814" fill="#fefffe" d="M 208.5,25.5 C 221.154,24.826 226.487,30.826 224.5,43.5C 218.833,43.5 213.167,43.5 207.5,43.5C 207.549,46.0991 208.549,48.2658 210.5,50C 214.332,50.7622 217.998,50.2622 221.5,48.5C 223.657,49.9664 223.99,51.7997 222.5,54C 205.193,59.3762 198.026,52.8762 201,34.5C 202.642,30.6997 205.142,27.6997 208.5,25.5 Z M 209.5,31.5 C 214.836,30.1845 217.503,32.1845 217.5,37.5C 214.167,37.5 210.833,37.5 207.5,37.5C 207.604,35.2972 208.27,33.2972 209.5,31.5 Z"/></g>
<g><path style="opacity:0.826" fill="#fefffe" d="M 233.5,25.5 C 235.993,25.3291 237.826,26.3291 239,28.5C 239.333,35.1667 239.667,41.8333 240,48.5C 242.711,49.9256 245.211,49.5923 247.5,47.5C 248.167,40.5 248.833,33.5 249.5,26.5C 251.167,25.1667 252.833,25.1667 254.5,26.5C 255.331,34.1451 255.831,41.8117 256,49.5C 257.954,51.7851 257.787,53.9517 255.5,56C 252.834,56.1619 250.834,54.9952 249.5,52.5C 244.495,57.2045 239.329,57.5379 234,53.5C 232.8,45.5846 231.967,37.5846 231.5,29.5C 231.803,27.8857 232.47,26.5523 233.5,25.5 Z"/></g>
<g><path style="opacity:0.826" fill="#fefffe" d="M 265.5,25.5 C 268.421,25.1459 270.754,26.1459 272.5,28.5C 277.614,24.1895 282.28,24.5229 286.5,29.5C 291.783,24.3276 296.95,24.3276 302,29.5C 303.115,37.6258 303.949,45.7925 304.5,54C 302.187,57.0372 299.687,57.2039 297,54.5C 296.667,47.8333 296.333,41.1667 296,34.5C 293.601,31.9991 291.101,31.9991 288.5,34.5C 287.503,41.8032 287.169,49.1365 287.5,56.5C 285.167,56.5 282.833,56.5 280.5,56.5C 280.666,48.8261 280.5,41.1594 280,33.5C 277.501,32.2022 275.167,32.5356 273,34.5C 272.5,41.8258 272.334,49.1591 272.5,56.5C 270.167,56.5 267.833,56.5 265.5,56.5C 265.5,46.1667 265.5,35.8333 265.5,25.5 Z"/></g>
<g><path style="opacity:1" fill="#383838" d="M 26.5,27.5 C 26.5,35.5 26.5,43.5 26.5,51.5C 18.1639,47.3347 10.1639,42.668 2.5,37.5C 10.7231,34.7224 18.7231,31.3891 26.5,27.5 Z"/></g>
<g><path style="opacity:0.946" fill="#131313" d="M 26.5,27.5 C 33.8092,31.6049 41.4759,34.9383 49.5,37.5C 42.0358,42.4034 34.3691,47.0701 26.5,51.5C 26.5,43.5 26.5,35.5 26.5,27.5 Z"/></g>
<g><path style="opacity:0.862" fill="#8b8b8a" d="M 26.5,54.5 C 26.5,61.1667 26.5,67.8333 26.5,74.5C 26.1667,74.5 25.8333,74.5 25.5,74.5C 18.3331,63.5098 10.6664,52.8431 2.5,42.5C 2.83333,42.1667 3.16667,41.8333 3.5,41.5C 11.0591,46.1105 18.7258,50.4438 26.5,54.5 Z"/></g>
<g><path style="opacity:0.859" fill="#3b3b3a" d="M 27.5,74.5 C 27.1667,74.5 26.8333,74.5 26.5,74.5C 26.5,67.8333 26.5,61.1667 26.5,54.5C 33.6134,50.5597 40.6134,46.393 47.5,42C 48.3317,41.3123 48.9984,41.479 49.5,42.5C 41.653,52.8768 34.3197,63.5434 27.5,74.5 Z"/></g>
</svg>
