<?xml version="1.0" encoding="UTF-8"?>
<!DOCTYPE svg PUBLIC "-//W3C//DTD SVG 1.1//EN" "http://www.w3.org/Graphics/SVG/1.1/DTD/svg11.dtd">
<svg xmlns="http://www.w3.org/2000/svg" version="1.1" width="186px" height="75px" style="shape-rendering:geometricPrecision; text-rendering:geometricPrecision; image-rendering:optimizeQuality; fill-rule:evenodd; clip-rule:evenodd" xmlns:xlink="http://www.w3.org/1999/xlink">
<g><path style="opacity:0.939" fill="#e94235" d="M 25.5,-0.5 C 29.5,-0.5 33.5,-0.5 37.5,-0.5C 43.2278,1.21563 48.2278,4.21563 52.5,8.5C 49.1822,11.3172 46.0155,14.3172 43,17.5C 34.1264,10.6275 25.793,11.2942 18,19.5C 16.9055,21.0779 16.0722,22.7446 15.5,24.5C 11.5833,22.588 7.91664,20.2546 4.5,17.5C 5.85391,13.9683 7.85391,10.8016 10.5,8C 15.27,4.619 20.27,1.78567 25.5,-0.5 Z"/></g>
<g><path style="opacity:0.839" fill="#fefffe" d="M 79.5,3.5 C 87.903,3.13008 96.2363,3.63008 104.5,5C 113.549,9.59579 116.716,16.7625 114,26.5C 111.28,31.5512 107.113,34.7178 101.5,36C 96.8452,36.4992 92.1785,36.6658 87.5,36.5C 87.5,43.5 87.5,50.5 87.5,57.5C 84.8333,57.5 82.1667,57.5 79.5,57.5C 79.5,39.5 79.5,21.5 79.5,3.5 Z M 87.5,11.5 C 92.1785,11.3342 96.8452,11.5008 101.5,12C 109.5,17.3333 109.5,22.6667 101.5,28C 96.8452,28.4992 92.1785,28.6658 87.5,28.5C 87.5,22.8333 87.5,17.1667 87.5,11.5 Z"/></g>
<g><path style="opacity:0.948" fill="#f9bb05" d="M 4.5,17.5 C 7.91664,20.2546 11.5833,22.588 15.5,24.5C 14.1667,28.5 14.1667,32.5 15.5,36.5C 12.0026,39.083 8.33592,41.4164 4.5,43.5C -0.833333,34.8333 -0.833333,26.1667 4.5,17.5 Z"/></g>
<g><path style="opacity:0.869" fill="#fefffe" d="M 124.5,19.5 C 132.737,17.9672 139.57,20.3006 145,26.5C 146.451,36.729 146.951,47.0623 146.5,57.5C 144.167,57.5 141.833,57.5 139.5,57.5C 139.657,56.1266 139.49,54.7932 139,53.5C 130.416,60.6215 122.416,59.9549 115,51.5C 112.116,42.8452 114.95,37.0119 123.5,34C 128.956,33.677 134.289,33.5103 139.5,33.5C 137.163,27.6644 132.83,25.4977 126.5,27C 124.656,28.1821 122.823,29.3488 121,30.5C 119.51,29.6831 118.01,28.8498 116.5,28C 115.549,27.2825 115.383,26.4491 116,25.5C 118.322,22.6047 121.155,20.6047 124.5,19.5 Z M 128.5,39.5 C 141.4,39.6549 142.733,43.4882 132.5,51C 127.106,52.7384 123.44,51.0717 121.5,46C 122.601,42.4582 124.934,40.2916 128.5,39.5 Z"/></g>
<g><path style="opacity:0.852" fill="#fefffe" d="M 146.5,20.5 C 149.572,20.1826 152.572,20.5159 155.5,21.5C 158.742,29.6475 162.242,37.6475 166,45.5C 168.89,37.3878 172.056,29.3878 175.5,21.5C 178.086,20.52 180.753,20.1866 183.5,20.5C 176.737,38.0321 169.403,55.3654 161.5,72.5C 158.833,73.8333 156.167,73.8333 153.5,72.5C 156.03,66.607 158.696,60.7737 161.5,55C 156.608,43.3898 151.608,31.8898 146.5,20.5 Z"/></g>
<g><path style="opacity:0.929" fill="#4285f4" d="M 51.5,53.5 C 48.271,51.0584 45.271,48.3918 42.5,45.5C 44.5285,43.2868 46.1951,40.7868 47.5,38C 42.1771,37.5006 36.8437,37.334 31.5,37.5C 31.5,33.1667 31.5,28.8333 31.5,24.5C 41.1896,24.1682 50.8563,24.5016 60.5,25.5C 62.6942,36.5821 59.6942,45.9154 51.5,53.5 Z"/></g>
<g><path style="opacity:0.964" fill="#34a853" d="M 15.5,36.5 C 18.331,44.013 23.831,48.013 32,48.5C 35.6645,47.9998 39.1645,46.9998 42.5,45.5C 45.271,48.3918 48.271,51.0584 51.5,53.5C 44.5685,60.1561 36.2352,62.6561 26.5,61C 15.8481,59.1924 8.51476,53.359 4.5,43.5C 8.33592,41.4164 12.0026,39.083 15.5,36.5 Z"/></g>
</svg>
