<?xml version="1.0" encoding="UTF-8"?>
<!DOCTYPE svg PUBLIC "-//W3C//DTD SVG 1.1//EN" "http://www.w3.org/Graphics/SVG/1.1/DTD/svg11.dtd">
<svg xmlns="http://www.w3.org/2000/svg" version="1.1" width="115px" height="75px" style="shape-rendering:geometricPrecision; text-rendering:geometricPrecision; image-rendering:optimizeQuality; fill-rule:evenodd; clip-rule:evenodd" xmlns:xlink="http://www.w3.org/1999/xlink">
<g><path style="opacity:0.993" fill="#d40000" d="M 56.5,6.5 C 56.5,6.83333 56.5,7.16667 56.5,7.5C 42.1353,18.7698 37.9687,33.1031 44,50.5C 46.535,57.191 50.7017,62.5243 56.5,66.5C 56.5,66.8333 56.5,67.1667 56.5,67.5C 39.1879,77.0381 23.3545,75.0381 9,61.5C 5.00997,55.8497 1.8433,49.8497 -0.5,43.5C -0.5,39.1667 -0.5,34.8333 -0.5,30.5C 5.90882,9.28441 20.2422,-0.54892 42.5,1C 47.518,2.01159 52.1847,3.84492 56.5,6.5 Z"/></g>
<g><path style="opacity:0.994" fill="#fd9600" d="M 56.5,67.5 C 56.5,67.1667 56.5,66.8333 56.5,66.5C 71.2946,54.5986 75.4613,39.5986 69,21.5C 65.6807,16.0175 61.514,11.3508 56.5,7.5C 56.5,7.16667 56.5,6.83333 56.5,6.5C 76.7604,-4.14229 93.927,-0.475621 108,17.5C 117.954,37.5145 114.121,54.3479 96.5,68C 83.0494,75.4467 69.7161,75.28 56.5,67.5 Z"/></g>
<g><path style="opacity:1" fill="#fd3c00" d="M 56.5,7.5 C 61.514,11.3508 65.6807,16.0175 69,21.5C 75.4613,39.5986 71.2946,54.5986 56.5,66.5C 50.7017,62.5243 46.535,57.191 44,50.5C 37.9687,33.1031 42.1353,18.7698 56.5,7.5 Z"/></g>
</svg>
