<?xml version="1.0" encoding="UTF-8"?>
<!DOCTYPE svg PUBLIC "-//W3C//DTD SVG 1.1//EN" "http://www.w3.org/Graphics/SVG/1.1/DTD/svg11.dtd">
<svg xmlns="http://www.w3.org/2000/svg" version="1.1" width="270px" height="75px" style="shape-rendering:geometricPrecision; text-rendering:geometricPrecision; image-rendering:optimizeQuality; fill-rule:evenodd; clip-rule:evenodd" xmlns:xlink="http://www.w3.org/1999/xlink">
<g><path style="opacity:0.967" fill="#0f754e" d="M 2.5,0.5 C 13.6029,0.0455415 24.6029,0.545541 35.5,2C 37.3783,3.5429 38.8783,5.37623 40,7.5C 43.3678,19.6495 47.0344,31.6495 51,43.5C 54.3333,32.1667 57.6667,20.8333 61,9.5C 62.0608,6.43842 63.8941,3.93842 66.5,2C 77.0631,0.547097 87.7298,0.0470968 98.5,0.5C 98.5,24.8333 98.5,49.1667 98.5,73.5C 90.5,73.5 82.5,73.5 74.5,73.5C 74.6666,59.496 74.4999,45.496 74,31.5C 69.0456,44.9712 64.5456,58.6379 60.5,72.5C 53.9438,73.81 47.4438,73.81 41,72.5C 37.0665,58.6997 32.7331,45.033 28,31.5C 27.5001,45.496 27.3334,59.496 27.5,73.5C 19.1667,73.5 10.8333,73.5 2.5,73.5C 2.5,49.1667 2.5,24.8333 2.5,0.5 Z"/></g>
<g><path style="opacity:0.958" fill="#0f744e" d="M 107.5,0.5 C 116.167,0.5 124.833,0.5 133.5,0.5C 133.333,14.8372 133.5,29.1705 134,43.5C 139.393,31.0471 145.06,18.7138 151,6.5C 152.5,5 154,3.5 155.5,2C 164.726,0.554542 174.06,0.0545417 183.5,0.5C 183.5,24.8333 183.5,49.1667 183.5,73.5C 175.167,73.5 166.833,73.5 158.5,73.5C 158.667,59.496 158.5,45.496 158,31.5C 151.978,44.3788 145.811,57.2121 139.5,70C 137.833,71 136.167,72 134.5,73C 125.506,73.4998 116.506,73.6664 107.5,73.5C 107.5,49.1667 107.5,24.8333 107.5,0.5 Z"/></g>
<g><path style="opacity:0.872" fill="#03aafd" d="M 197.5,0.5 C 197.5,5.83333 197.5,11.1667 197.5,16.5C 193.38,12.0624 191.38,6.7291 191.5,0.5C 193.5,0.5 195.5,0.5 197.5,0.5 Z"/></g>
<g><path style="opacity:0.962" fill="#05a4fa" d="M 197.5,0.5 C 199.5,0.5 201.5,0.5 203.5,0.5C 203.797,7.92038 203.464,15.2537 202.5,22.5C 200.086,21.0892 198.419,19.0892 197.5,16.5C 197.5,11.1667 197.5,5.83333 197.5,0.5 Z"/></g>
<g><path style="opacity:0.973" fill="#079ff7" d="M 203.5,0.5 C 205.167,0.5 206.833,0.5 208.5,0.5C 208.826,9.34945 208.493,18.0161 207.5,26.5C 205.251,25.9202 203.585,24.5869 202.5,22.5C 203.464,15.2537 203.797,7.92038 203.5,0.5 Z"/></g>
<g><path style="opacity:0.966" fill="#0999f4" d="M 208.5,0.5 C 210.833,0.5 213.167,0.5 215.5,0.5C 215.807,10.5824 215.474,20.5824 214.5,30.5C 211.683,29.9049 209.35,28.5716 207.5,26.5C 208.493,18.0161 208.826,9.34945 208.5,0.5 Z"/></g>
<g><path style="opacity:0.961" fill="#0b92f1" d="M 215.5,0.5 C 216.833,0.5 218.167,0.5 219.5,0.5C 218.895,11.0913 219.562,21.4246 221.5,31.5C 219.097,31.552 216.764,31.2186 214.5,30.5C 215.474,20.5824 215.807,10.5824 215.5,0.5 Z"/></g>
<g><path style="opacity:0.971" fill="#0d8cee" d="M 219.5,0.5 C 221.833,0.5 224.167,0.5 226.5,0.5C 226.5,10.8333 226.5,21.1667 226.5,31.5C 224.833,31.5 223.167,31.5 221.5,31.5C 219.562,21.4246 218.895,11.0913 219.5,0.5 Z"/></g>
<g><path style="opacity:0.97" fill="#1086eb" d="M 226.5,0.5 C 228.5,0.5 230.5,0.5 232.5,0.5C 232.808,10.9154 232.475,21.2487 231.5,31.5C 229.833,31.5 228.167,31.5 226.5,31.5C 226.5,21.1667 226.5,10.8333 226.5,0.5 Z"/></g>
<g><path style="opacity:0.974" fill="#1181e9" d="M 232.5,0.5 C 233.5,0.5 234.5,0.5 235.5,0.5C 235.5,10.8333 235.5,21.1667 235.5,31.5C 234.167,31.5 232.833,31.5 231.5,31.5C 232.475,21.2487 232.808,10.9154 232.5,0.5 Z"/></g>
<g><path style="opacity:0.988" fill="#137ee7" d="M 235.5,0.5 C 236.5,0.5 237.5,0.5 238.5,0.5C 238.192,10.9154 238.525,21.2487 239.5,31.5C 238.167,31.5 236.833,31.5 235.5,31.5C 235.5,21.1667 235.5,10.8333 235.5,0.5 Z"/></g>
<g><path style="opacity:0.967" fill="#1479e5" d="M 238.5,0.5 C 240.5,0.5 242.5,0.5 244.5,0.5C 244.192,10.9154 244.525,21.2487 245.5,31.5C 243.5,31.5 241.5,31.5 239.5,31.5C 238.525,21.2487 238.192,10.9154 238.5,0.5 Z"/></g>
<g><path style="opacity:0.97" fill="#1673e2" d="M 244.5,0.5 C 246.621,0.325255 248.621,0.658588 250.5,1.5C 250.5,1.83333 250.5,2.16667 250.5,2.5C 249.506,11.9856 249.173,21.6522 249.5,31.5C 248.167,31.5 246.833,31.5 245.5,31.5C 244.525,21.2487 244.192,10.9154 244.5,0.5 Z"/></g>
<g><path style="opacity:1" fill="#186fe1" d="M 250.5,2.5 C 250.843,12.3472 251.843,22.0138 253.5,31.5C 252.167,31.5 250.833,31.5 249.5,31.5C 249.173,21.6522 249.506,11.9856 250.5,2.5 Z"/></g>
<g><path style="opacity:0.981" fill="#196cdf" d="M 250.5,1.5 C 252.403,1.79586 254.07,2.46253 255.5,3.5C 255.805,12.9167 255.472,22.25 254.5,31.5C 254.167,31.5 253.833,31.5 253.5,31.5C 251.843,22.0138 250.843,12.3472 250.5,2.5C 250.5,2.16667 250.5,1.83333 250.5,1.5 Z"/></g>
<g><path style="opacity:0.94" fill="#1b67dc" d="M 255.5,3.5 C 258.37,4.43334 260.704,6.10001 262.5,8.5C 262.201,16.253 262.534,23.9196 263.5,31.5C 260.5,31.5 257.5,31.5 254.5,31.5C 255.472,22.25 255.805,12.9167 255.5,3.5 Z"/></g>
<g><path style="opacity:0.941" fill="#1d60d9" d="M 262.5,8.5 C 265.786,11.4 267.786,15.0666 268.5,19.5C 266.824,23.5622 267.158,27.2288 269.5,30.5C 269.5,30.8333 269.5,31.1667 269.5,31.5C 267.5,31.5 265.5,31.5 263.5,31.5C 262.534,23.9196 262.201,16.253 262.5,8.5 Z"/></g>
<g><path style="opacity:0.896" fill="#1e5cd7" d="M 268.5,19.5 C 268.833,19.5 269.167,19.5 269.5,19.5C 269.5,23.1667 269.5,26.8333 269.5,30.5C 267.158,27.2288 266.824,23.5622 268.5,19.5 Z"/></g>
<g><path style="opacity:0.926" fill="#0f754e" d="M 192.5,34.5 C 217.5,34.5 242.5,34.5 267.5,34.5C 264.183,44.5237 257.183,50.3571 246.5,52C 236.506,52.4998 226.506,52.6665 216.5,52.5C 216.5,59.5 216.5,66.5 216.5,73.5C 208.5,73.5 200.5,73.5 192.5,73.5C 192.5,60.5 192.5,47.5 192.5,34.5 Z"/></g>
</svg>
