<?xml version="1.0" encoding="UTF-8"?>
<!DOCTYPE svg PUBLIC "-//W3C//DTD SVG 1.1//EN" "http://www.w3.org/Graphics/SVG/1.1/DTD/svg11.dtd">
<svg xmlns="http://www.w3.org/2000/svg" version="1.1" width="282px" height="69px" style="shape-rendering:geometricPrecision; text-rendering:geometricPrecision; image-rendering:optimizeQuality; fill-rule:evenodd; clip-rule:evenodd" xmlns:xlink="http://www.w3.org/1999/xlink">
<g><path style="opacity:0.997" fill="#3e3e3e" d="M 1.5,1.5 C 11.233,1.10908 20.8997,1.60908 30.5,3C 37.29,4.7931 41.79,8.95977 44,15.5C 47.174,37.4934 37.674,47.16 15.5,44.5C 15.5,51.5 15.5,58.5 15.5,65.5C 10.8215,65.6658 6.1548,65.4992 1.5,65C 2.81792,43.8631 2.81792,22.6964 1.5,1.5 Z M 15.5,13.5 C 26.6039,11.7709 31.1039,16.4375 29,27.5C 28.2155,29.286 27.0488,30.786 25.5,32C 22.1832,32.4983 18.8499,32.665 15.5,32.5C 15.5,26.1667 15.5,19.8333 15.5,13.5 Z"/></g>
<g><path style="opacity:0.984" fill="#3f3e3e" d="M 61.5,1.5 C 65.7675,1.20299 69.9341,1.53632 74,2.5C 81.5538,23.3268 88.3872,44.3268 94.5,65.5C 90.4862,65.6655 86.4862,65.4988 82.5,65C 79.9428,60.8283 78.2761,56.3283 77.5,51.5C 70.9058,51.1224 64.2391,51.7891 57.5,53.5C 56.5008,57.661 54.8342,61.4943 52.5,65C 48.5138,65.4988 44.5138,65.6655 40.5,65.5C 47.0985,44.0378 54.0985,22.7045 61.5,1.5 Z M 66.5,24.5 C 67.4972,24.4701 68.1639,24.9701 68.5,26C 70.323,30.6343 71.9897,35.301 73.5,40C 69.5,40.6667 65.5,40.6667 61.5,40C 63.6698,34.9906 65.3365,29.824 66.5,24.5 Z"/></g>
<g><path style="opacity:0.983" fill="#3e3e3e" d="M 90.5,1.5 C 95.1785,1.33418 99.8452,1.50085 104.5,2C 107.694,8.88799 111.027,15.7213 114.5,22.5C 117.961,15.7434 121.295,8.91011 124.5,2C 129.155,1.50085 133.821,1.33418 138.5,1.5C 133.293,14.2512 127.793,26.9178 122,39.5C 121.667,47.8333 121.333,56.1667 121,64.5C 116.599,65.4667 112.099,65.8 107.5,65.5C 107.666,56.4938 107.5,47.4938 107,38.5C 100.933,26.3704 95.433,14.0371 90.5,1.5 Z"/></g>
<g><path style="opacity:0.997" fill="#3998d9" d="M 145.5,1.5 C 157.167,1.5 168.833,1.5 180.5,1.5C 180.5,5.5 180.5,9.5 180.5,13.5C 173.167,13.5 165.833,13.5 158.5,13.5C 158.5,17.8333 158.5,22.1667 158.5,26.5C 164.5,26.5 170.5,26.5 176.5,26.5C 176.5,30.5 176.5,34.5 176.5,38.5C 170.5,38.5 164.5,38.5 158.5,38.5C 158.5,43.5 158.5,48.5 158.5,53.5C 166.833,53.5 175.167,53.5 183.5,53.5C 183.5,57.5 183.5,61.5 183.5,65.5C 170.587,65.8224 157.754,65.4891 145,64.5C 144.179,43.4271 144.346,22.4271 145.5,1.5 Z"/></g>
<g><path style="opacity:0.996" fill="#3798da" d="M 189.5,1.5 C 201.167,1.5 212.833,1.5 224.5,1.5C 224.5,5.5 224.5,9.5 224.5,13.5C 217.167,13.5 209.833,13.5 202.5,13.5C 202.5,17.8333 202.5,22.1667 202.5,26.5C 208.833,26.5 215.167,26.5 221.5,26.5C 221.5,30.5 221.5,34.5 221.5,38.5C 215.167,38.5 208.833,38.5 202.5,38.5C 202.5,43.5 202.5,48.5 202.5,53.5C 210.833,53.5 219.167,53.5 227.5,53.5C 227.5,57.5 227.5,61.5 227.5,65.5C 214.833,65.5 202.167,65.5 189.5,65.5C 189.5,44.1667 189.5,22.8333 189.5,1.5 Z"/></g>
<g><path style="opacity:0.993" fill="#3698da" d="M 233.5,1.5 C 242.506,1.33356 251.506,1.50023 260.5,2C 270.804,3.73252 276.138,9.89919 276.5,20.5C 275.998,28.8396 271.998,34.8396 264.5,38.5C 269.468,47.4389 274.135,56.4389 278.5,65.5C 273.821,65.6658 269.155,65.4992 264.5,65C 259.541,56.9158 254.707,48.7491 250,40.5C 248.989,39.6634 247.822,39.33 246.5,39.5C 246.5,48.1667 246.5,56.8333 246.5,65.5C 242.167,65.5 237.833,65.5 233.5,65.5C 233.5,44.1667 233.5,22.8333 233.5,1.5 Z M 246.5,13.5 C 250.182,13.3347 253.848,13.5014 257.5,14C 262.426,17.9118 262.759,22.2451 258.5,27C 254.637,28.3537 250.637,28.8537 246.5,28.5C 246.5,23.5 246.5,18.5 246.5,13.5 Z"/></g>
</svg>
