<?xml version="1.0" encoding="UTF-8"?>
<!DOCTYPE svg PUBLIC "-//W3C//DTD SVG 1.1//EN" "http://www.w3.org/Graphics/SVG/1.1/DTD/svg11.dtd">
<svg xmlns="http://www.w3.org/2000/svg" version="1.1" width="188px" height="75px" style="shape-rendering:geometricPrecision; text-rendering:geometricPrecision; image-rendering:optimizeQuality; fill-rule:evenodd; clip-rule:evenodd" xmlns:xlink="http://www.w3.org/1999/xlink">
<g><path style="opacity:0.909" fill="#ff3f80" d="M 36.5,-0.5 C 37.1667,-0.5 37.8333,-0.5 38.5,-0.5C 41.5526,2.39043 44.0526,5.72376 46,9.5C 47.4061,16.4466 46.2395,22.7799 42.5,28.5C 40.8621,27.8411 39.1955,27.1744 37.5,26.5C 36.8933,26.6236 36.56,26.9569 36.5,27.5C 34.5,28.8333 32.5,28.8333 30.5,27.5C 25.2535,16.4975 27.2535,7.1642 36.5,-0.5 Z"/></g>
<g><path style="opacity:0.879" fill="#ff3f80" d="M 30.5,27.5 C 30.5,28.8333 30.5,30.1667 30.5,31.5C 28.8958,32.287 28.2291,33.6203 28.5,35.5C 14.6741,34.01 8.00744,26.3433 8.5,12.5C 15.174,12 21.174,13.6667 26.5,17.5C 26.972,21.2734 28.3053,24.6067 30.5,27.5 Z"/></g>
<g><path style="opacity:0.632" fill="#02a8f4" d="M 56.5,22.5 C 63.0423,21.9887 69.3756,22.8221 75.5,25C 79.5,29 79.5,33 75.5,37C 72.4601,39.0314 69.2934,39.5314 66,38.5C 65.5017,41.8168 65.335,45.1501 65.5,48.5C 66.8333,48.5 68.1667,48.5 69.5,48.5C 69.5,49.5 69.5,50.5 69.5,51.5C 65.1667,50.1667 60.8333,50.1667 56.5,51.5C 56.5,50.5 56.5,49.5 56.5,48.5C 57.8333,48.5 59.1667,48.5 60.5,48.5C 60.5,40.8333 60.5,33.1667 60.5,25.5C 59.1667,25.5 57.8333,25.5 56.5,25.5C 56.5,24.5 56.5,23.5 56.5,22.5 Z M 65.5,25.5 C 73.2568,25.503 75.2568,29.003 71.5,36C 69.5273,36.4955 67.5273,36.6621 65.5,36.5C 65.5,32.8333 65.5,29.1667 65.5,25.5 Z"/></g>
<g><path style="opacity:0.675" fill="#02a8f4" d="M 83.5,24.5 C 87.1612,24.3501 88.1612,25.8501 86.5,29C 82.7071,29.4866 81.7071,27.9866 83.5,24.5 Z"/></g>
<g><path style="opacity:0.824" fill="#02a7f4" d="M 157.5,24.5 C 160.729,24.1647 162.229,25.4981 162,28.5C 157.421,30.4183 155.921,29.085 157.5,24.5 Z"/></g>
<g><path style="opacity:0.505" fill="#ff3689" d="M 36.5,27.5 C 36.56,26.9569 36.8933,26.6236 37.5,26.5C 39.1955,27.1744 40.8621,27.8411 42.5,28.5C 42.1583,29.3382 41.4916,29.6716 40.5,29.5C 39.3285,28.6554 37.9952,27.9887 36.5,27.5 Z"/></g>
<g><path style="opacity:0.879" fill="#ff3f81" d="M 29.5,40.5 C 25.9221,44.5882 21.2554,46.5882 15.5,46.5C 9.06353,45.9485 3.73019,43.2818 -0.5,38.5C -0.5,37.8333 -0.5,37.1667 -0.5,36.5C 3.14416,33.6737 7.14416,31.3404 11.5,29.5C 16.2093,33.241 21.5427,35.741 27.5,37C 28.0848,38.3024 28.7515,39.469 29.5,40.5 Z"/></g>
<g><path style="opacity:0.954" fill="#ffda00" d="M 40.5,29.5 C 44.6497,32.7129 45.483,36.7129 43,41.5C 38.2183,45.5809 33.7183,45.2475 29.5,40.5C 29.3677,37.4299 29.701,34.4299 30.5,31.5C 33.582,29.819 36.9153,29.1524 40.5,29.5 Z"/></g>
<g><path style="opacity:0.571" fill="#02a8f4" d="M 79.5,33.5 C 82.2716,34.3715 84.9382,34.3715 87.5,33.5C 87.8025,38.43 87.4692,43.2633 86.5,48C 87.7932,48.49 89.1266,48.6567 90.5,48.5C 90.5,49.5 90.5,50.5 90.5,51.5C 86.7938,50.4612 83.1271,50.4612 79.5,51.5C 79.5,50.5 79.5,49.5 79.5,48.5C 80.5,48.5 81.5,48.5 82.5,48.5C 82.5,44.5 82.5,40.5 82.5,36.5C 81.5,36.5 80.5,36.5 79.5,36.5C 79.5,35.5 79.5,34.5 79.5,33.5 Z"/></g>
<g><path style="opacity:0.679" fill="#02a9f4" d="M 129.5,28.5 C 131.256,29.5521 131.923,31.2188 131.5,33.5C 133.167,33.5 134.833,33.5 136.5,33.5C 136.5,34.5 136.5,35.5 136.5,36.5C 134.833,36.5 133.167,36.5 131.5,36.5C 131.5,40.8333 131.5,45.1667 131.5,49.5C 133.2,49.3739 134.7,48.7073 136,47.5C 136.5,47.8333 137,48.1667 137.5,48.5C 134.58,51.9227 131.413,52.256 128,49.5C 127.501,45.1794 127.334,40.8461 127.5,36.5C 125.897,36.6882 124.563,36.1882 123.5,35C 125.219,33.9431 127.053,33.1097 129,32.5C 129.49,31.2068 129.657,29.8734 129.5,28.5 Z"/></g>
<g><path style="opacity:0.654" fill="#02a8f4" d="M 139.5,33.5 C 141.205,34.5353 142.872,34.5353 144.5,33.5C 145.192,34.0253 145.692,34.6919 146,35.5C 148.901,32.6822 151.401,33.0155 153.5,36.5C 151.764,39.1047 149.931,39.1047 148,36.5C 145.757,40.1309 144.923,44.1309 145.5,48.5C 146.833,48.5 148.167,48.5 149.5,48.5C 149.5,49.5 149.5,50.5 149.5,51.5C 145.794,50.4612 142.127,50.4612 138.5,51.5C 138.5,50.5 138.5,49.5 138.5,48.5C 139.5,48.5 140.5,48.5 141.5,48.5C 141.5,44.5 141.5,40.5 141.5,36.5C 137.36,37.0443 136.693,36.0443 139.5,33.5 Z"/></g>
<g><path style="opacity:0.65" fill="#02a8f4" d="M 168.5,33.5 C 173.513,34.2536 178.679,34.2536 184,33.5C 184.483,34.448 184.649,35.448 184.5,36.5C 183.022,36.238 181.689,36.5713 180.5,37.5C 179.687,38.8139 178.687,39.9805 177.5,41C 179.167,43.3333 180.833,45.6667 182.5,48C 183.793,48.49 185.127,48.6567 186.5,48.5C 186.5,49.5 186.5,50.5 186.5,51.5C 182.817,50.3252 179.15,50.3252 175.5,51.5C 175.36,49.8762 176.027,48.7096 177.5,48C 176.299,47.0975 175.465,45.9308 175,44.5C 174.044,45.5786 173.211,46.7453 172.5,48C 173.973,48.7096 174.64,49.8762 174.5,51.5C 171.5,50.1667 168.5,50.1667 165.5,51.5C 165.5,50.5 165.5,49.5 165.5,48.5C 172.956,47.2627 174.623,43.596 170.5,37.5C 169.167,36.8333 167.833,36.1667 166.5,35.5C 167.243,34.8182 167.909,34.1515 168.5,33.5 Z M 175.5,37.5 C 176.251,36.4265 177.251,36.2599 178.5,37C 177.648,38.7284 176.648,38.895 175.5,37.5 Z"/></g>
<g><path style="opacity:0.799" fill="#02a9f4" d="M 154.5,33.5 C 156.584,34.2483 158.584,34.2483 160.5,33.5C 161.494,38.456 161.827,43.456 161.5,48.5C 162.5,48.5 163.5,48.5 164.5,48.5C 164.5,49.5 164.5,50.5 164.5,51.5C 161.167,50.1667 157.833,50.1667 154.5,51.5C 154.5,50.5 154.5,49.5 154.5,48.5C 155.5,48.5 156.5,48.5 157.5,48.5C 157.5,44.5 157.5,40.5 157.5,36.5C 156.5,36.5 155.5,36.5 154.5,36.5C 154.5,35.5 154.5,34.5 154.5,33.5 Z"/></g>
<g><path style="opacity:0.82" fill="#02a8f4" d="M 113.5,33.5 C 116.146,33.8916 118.646,33.8916 121,33.5C 121.808,35.5787 121.641,37.5787 120.5,39.5C 119.827,36.0032 117.827,34.8365 114.5,36C 113.663,37.0113 113.33,38.1779 113.5,39.5C 122.99,39.4425 124.99,43.2759 119.5,51C 116.733,51.0556 114.067,51.2223 111.5,51.5C 110.167,49.1667 110.167,46.8333 111.5,44.5C 113.614,50.1153 116.614,50.782 120.5,46.5C 117.37,44.9093 114.203,43.2426 111,41.5C 110.018,38.2253 110.851,35.5586 113.5,33.5 Z"/></g>
<g><path style="opacity:0.86" fill="#02a8f4" d="M 95.5,33.5 C 98.8066,33.0632 101.807,33.7298 104.5,35.5C 105.167,40.1667 105.833,44.8333 106.5,49.5C 107.478,49.0233 108.311,48.3567 109,47.5C 109.521,50.1176 108.354,51.451 105.5,51.5C 103.971,51.4712 102.804,50.8045 102,49.5C 98.5954,52.0768 95.262,52.0768 92,49.5C 91.1041,46.975 91.6041,44.8083 93.5,43C 95.9088,41.2932 98.5755,40.4598 101.5,40.5C 101.5,38.8333 101.5,37.1667 101.5,35.5C 99.712,35.2148 98.0453,35.5481 96.5,36.5C 97.7422,39.9301 96.4089,41.2634 92.5,40.5C 92.1496,37.5466 93.1496,35.2133 95.5,33.5 Z M 99.5,42.5 C 100.649,42.7911 101.316,43.6244 101.5,45C 101.457,47.3759 100.291,48.8759 98,49.5C 95.6807,48.5915 95.0141,46.9248 96,44.5C 97.3024,43.9152 98.469,43.2485 99.5,42.5 Z"/></g>
<g><path style="opacity:0.876" fill="#ff3f80" d="M 28.5,59.5 C 23.391,63.0275 17.7244,64.5275 11.5,64C 10.3238,58.5166 11.3238,53.3499 14.5,48.5C 19.9574,47.7364 25.1241,46.0698 30,43.5C 32.2144,43.8457 33.7144,45.0124 34.5,47C 33.1379,51.5551 31.1379,55.7218 28.5,59.5 Z"/></g>
<g><path style="opacity:0.873" fill="#ff3f81" d="M 38.5,74.5 C 37.5,74.5 36.5,74.5 35.5,74.5C 32.9097,69.6511 30.5764,64.6511 28.5,59.5C 32.5153,56.148 35.0153,51.8147 36,46.5C 37.6667,45.8333 39.3333,45.1667 41,44.5C 45.176,50.5398 46.5094,57.2065 45,64.5C 42.9778,68.0035 40.8112,71.3368 38.5,74.5 Z"/></g>
</svg>
