<?xml version="1.0" encoding="UTF-8"?>
<!DOCTYPE svg PUBLIC "-//W3C//DTD SVG 1.1//EN" "http://www.w3.org/Graphics/SVG/1.1/DTD/svg11.dtd">
<svg xmlns="http://www.w3.org/2000/svg" version="1.1" width="175px" height="75px" style="shape-rendering:geometricPrecision; text-rendering:geometricPrecision; image-rendering:optimizeQuality; fill-rule:evenodd; clip-rule:evenodd" xmlns:xlink="http://www.w3.org/1999/xlink">
<g><path style="opacity:0.958" fill="#f78f22" d="M 26.5,-0.5 C 31.8333,-0.5 37.1667,-0.5 42.5,-0.5C 61.3756,6.24095 69.209,19.5743 66,39.5C 64.7127,44.4398 62.2127,48.4398 58.5,51.5C 58.6716,50.5084 58.3382,49.8417 57.5,49.5C 57.2488,47.8297 56.5822,46.3297 55.5,45C 53.1029,43.2817 50.4362,42.1151 47.5,41.5C 50.2815,40.048 52.7815,40.3813 55,42.5C 57.9475,27.2279 52.4475,16.0612 38.5,9C 23.4881,4.0886 13.9881,9.25526 10,24.5C 8.86963,42.8619 17.3696,53.1952 35.5,55.5C 34.9478,53.6693 34.9478,52.0026 35.5,50.5C 37.7195,53.8819 40.7195,56.3819 44.5,58C 54.1272,58.271 62.2938,61.771 69,68.5C 70.5588,70.2166 71.3921,72.2166 71.5,74.5C 70.8333,74.5 70.1667,74.5 69.5,74.5C 66.5879,68.856 61.9212,65.356 55.5,64C 48.0785,63.2206 40.7452,63.7206 33.5,65.5C 16.7308,64.8134 5.3975,56.8134 -0.5,41.5C -0.5,36.5 -0.5,31.5 -0.5,26.5C 4.15806,13.1753 13.1581,4.17527 26.5,-0.5 Z"/></g>
<g><path style="opacity:0.949" fill="#284195" d="M 90.5,15.5 C 101.638,15.6363 107.638,21.303 108.5,32.5C 108.46,40.1855 105.127,45.8522 98.5,49.5C 100.68,53.3987 104.013,55.5654 108.5,56C 109.337,57.0113 109.67,58.1779 109.5,59.5C 101.923,59.5367 95.9225,56.5367 91.5,50.5C 80.1302,45.755 76.2968,37.4216 80,25.5C 82.1059,20.5573 85.6059,17.224 90.5,15.5 Z M 91.5,20.5 C 96.0326,20.1768 98.8659,22.1768 100,26.5C 100.667,30.8333 100.667,35.1667 100,39.5C 98.3357,44.0383 95.1691,45.5383 90.5,44C 88.9512,42.786 87.7845,41.286 87,39.5C 86.3333,35.1667 86.3333,30.8333 87,26.5C 87.5985,23.7458 89.0985,21.7458 91.5,20.5 Z"/></g>
<g><path style="opacity:0.838" fill="#274195" d="M 113.5,16.5 C 115.833,16.5 118.167,16.5 120.5,16.5C 120.667,27.1719 120.5,37.8385 120,48.5C 117.959,49.4231 115.792,49.7564 113.5,49.5C 113.5,38.5 113.5,27.5 113.5,16.5 Z"/></g>
<g><path style="opacity:0.957" fill="#284095" d="M 125.5,16.5 C 127.792,16.2436 129.959,16.5769 132,17.5C 133.823,23.7901 135.489,30.1235 137,36.5C 139.145,29.9012 140.978,23.2345 142.5,16.5C 143.978,16.238 145.311,16.5713 146.5,17.5C 148.432,23.4644 150.266,29.4644 152,35.5C 154.133,29.6439 155.967,23.6439 157.5,17.5C 159.5,16.1667 161.5,16.1667 163.5,17.5C 160.668,27.4944 157.835,37.4944 155,47.5C 153.688,49.6576 152.022,49.9909 150,48.5C 148,42.5 146,36.5 144,30.5C 141.996,36.5109 139.996,42.5109 138,48.5C 136.667,49.8333 135.333,49.8333 134,48.5C 130.17,37.8319 127.337,27.1652 125.5,16.5 Z"/></g>
<g><path style="opacity:0.827" fill="#274194" d="M 174.5,16.5 C 174.5,27.5 174.5,38.5 174.5,49.5C 171.921,49.9167 169.754,49.25 168,47.5C 167.333,37.5 167.333,27.5 168,17.5C 170.041,16.5769 172.208,16.2436 174.5,16.5 Z"/></g>
<g><path style="opacity:0.857" fill="#f78e22" d="M 48.5,51.5 C 51.1142,51.2771 52.7809,52.4438 53.5,55C 51.9732,56.6324 50.3066,56.7991 48.5,55.5C 47.6371,54.2736 47.6371,52.9403 48.5,51.5 Z"/></g>
<g><path style="opacity:0.212" fill="#f78f23" d="M 57.5,49.5 C 57.3284,50.4916 57.6618,51.1583 58.5,51.5C 57.6886,55.2776 56.6886,55.111 55.5,51C 55.8361,49.9701 56.5028,49.4701 57.5,49.5 Z"/></g>
</svg>
