<?xml version="1.0" encoding="UTF-8"?>
<!DOCTYPE svg PUBLIC "-//W3C//DTD SVG 1.1//EN" "http://www.w3.org/Graphics/SVG/1.1/DTD/svg11.dtd">
<svg xmlns="http://www.w3.org/2000/svg" version="1.1" width="192px" height="75px" style="shape-rendering:geometricPrecision; text-rendering:geometricPrecision; image-rendering:optimizeQuality; fill-rule:evenodd; clip-rule:evenodd" xmlns:xlink="http://www.w3.org/1999/xlink">
<g><path style="opacity:0.991" fill="#1e4ac5" d="M 27.5,-0.5 C 33.8333,-0.5 40.1667,-0.5 46.5,-0.5C 61.1292,1.58342 69.9625,9.91675 73,24.5C 78.3094,62.1902 62.1427,78.0236 24.5,72C 10.4345,69.267 2.60116,60.767 1,46.5C -1.10202,33.7665 0.897982,21.7665 7,10.5C 12.8506,4.82719 19.6839,1.16053 27.5,-0.5 Z"/></g>
<g><path style="opacity:0.754" fill="#fefffe" d="M 89.5,19.5 C 91.1032,20.5964 92.6032,21.9297 94,23.5C 94.7562,25.8087 94.2562,27.8087 92.5,29.5C 89.8971,30.5617 87.2305,30.7284 84.5,30C 82.8446,28.5557 82.178,26.7224 82.5,24.5C 84.1667,24.5 85.8333,24.5 87.5,24.5C 85.8968,23.4036 84.3968,22.0703 83,20.5C 82.4621,14.4809 85.2955,12.3142 91.5,14C 93.1554,15.4443 93.822,17.2776 93.5,19.5C 92.1667,19.5 90.8333,19.5 89.5,19.5 Z M 89.5,19.5 C 87.663,19.3605 87.3296,18.6939 88.5,17.5C 89.2975,17.9569 89.6309,18.6236 89.5,19.5 Z M 87.5,24.5 C 88.2891,24.7828 88.9558,25.2828 89.5,26C 88.184,26.5281 87.5173,26.0281 87.5,24.5 Z"/></g>
<g><path style="opacity:0.709" fill="#fefffe" d="M 99.5,13.5 C 101.792,13.2436 103.959,13.5769 106,14.5C 107.376,19.7551 108.209,25.0884 108.5,30.5C 106.833,30.5 105.167,30.5 103.5,30.5C 103.543,27.0901 103.043,23.7568 102,20.5C 101.744,23.557 101.244,26.557 100.5,29.5C 98.9547,30.4519 97.288,30.7852 95.5,30.5C 96.3035,24.6605 97.6368,18.9938 99.5,13.5 Z"/></g>
<g><path style="opacity:0.692" fill="#fefffe" d="M 111.5,13.5 C 113.792,13.2436 115.959,13.5769 118,14.5C 118.92,17.1013 119.587,19.7679 120,22.5C 118.972,15.6964 121.806,12.6964 128.5,13.5C 128.5,19.1667 128.5,24.8333 128.5,30.5C 126.833,30.5 125.167,30.5 123.5,30.5C 123.167,22.5 122.833,22.5 122.5,30.5C 120.712,30.7852 119.045,30.4519 117.5,29.5C 116.787,27.2241 116.287,24.8907 116,22.5C 115.503,25.146 115.336,27.8127 115.5,30.5C 113.833,30.5 112.167,30.5 110.5,30.5C 110.447,24.8044 110.78,19.1377 111.5,13.5 Z"/></g>
<g><path style="opacity:0.75" fill="#fefffe" d="M 138.5,19.5 C 143.058,21.9126 144.058,25.246 141.5,29.5C 138.897,30.5617 136.23,30.7284 133.5,30C 131.845,28.5557 131.178,26.7224 131.5,24.5C 133.167,24.5 134.833,24.5 136.5,24.5C 134.897,23.4036 133.397,22.0703 132,20.5C 132.006,13.7376 135.172,11.9043 141.5,15C 142.38,16.3561 142.714,17.8561 142.5,19.5C 141.167,19.5 139.833,19.5 138.5,19.5 Z M 138.5,19.5 C 136.663,19.3605 136.33,18.6939 137.5,17.5C 138.298,17.9569 138.631,18.6236 138.5,19.5 Z M 136.5,24.5 C 137.289,24.7828 137.956,25.2828 138.5,26C 137.184,26.5281 136.517,26.0281 136.5,24.5 Z"/></g>
<g><path style="opacity:0.717" fill="#fefffe" d="M 145.5,13.5 C 147.167,13.5 148.833,13.5 150.5,13.5C 151.167,30.8333 151.833,30.8333 152.5,13.5C 154.167,13.5 155.833,13.5 157.5,13.5C 157.666,18.1785 157.499,22.8452 157,27.5C 155.704,29.8146 153.704,30.8146 151,30.5C 148.966,30.6464 147.299,29.9797 146,28.5C 145.501,23.5111 145.334,18.5111 145.5,13.5 Z"/></g>
<g><path style="opacity:0.752" fill="#fefffe" d="M 160.5,13.5 C 166.436,13.3215 169.27,16.3215 169,22.5C 169.498,19.5184 169.665,16.5184 169.5,13.5C 170.833,13.5 172.167,13.5 173.5,13.5C 173.5,19.1667 173.5,24.8333 173.5,30.5C 170.956,30.8957 168.789,30.229 167,28.5C 166.489,26.1218 165.822,23.7885 165,21.5C 164.272,24.2305 164.438,26.8971 165.5,29.5C 163.955,30.4519 162.288,30.7852 160.5,30.5C 160.5,24.8333 160.5,19.1667 160.5,13.5 Z"/></g>
<g><path style="opacity:0.738" fill="#fefffe" d="M 179.5,13.5 C 184.709,12.3961 187.709,14.3961 188.5,19.5C 186.179,19.7711 184.179,19.1045 182.5,17.5C 181.167,20.5 181.167,23.5 182.5,26.5C 183.231,24.5988 183.231,22.5988 182.5,20.5C 184.5,20.5 186.5,20.5 188.5,20.5C 190.394,28.4374 187.394,31.6041 179.5,30C 177.026,27.9589 176.026,25.2923 176.5,22C 176.051,18.561 177.051,15.7276 179.5,13.5 Z"/></g>
<g><path style="opacity:1" fill="#eceffa" d="M 14.5,25.5 C 19.5355,24.5021 23.7022,25.8354 27,29.5C 28.4963,37.1717 25.3296,40.5051 17.5,39.5C 17.5,41.1667 17.5,42.8333 17.5,44.5C 16.5,44.5 15.5,44.5 14.5,44.5C 14.5,38.1667 14.5,31.8333 14.5,25.5 Z"/></g>
<g><path style="opacity:1" fill="#e5e9f8" d="M 32.5,29.5 C 36.577,30.2431 40.577,30.2431 44.5,29.5C 44.5,34.5 44.5,39.5 44.5,44.5C 41.6225,43.4146 38.7891,43.4146 36,44.5C 29.4353,43.7287 27.102,40.0621 29,33.5C 30.3756,32.2949 31.5423,30.9616 32.5,29.5 Z"/></g>
<g><path style="opacity:1" fill="#ebeefa" d="M 45.5,29.5 C 46.9778,29.238 48.3112,29.5713 49.5,30.5C 52.4502,40.9538 54.7836,40.6205 56.5,29.5C 57.9778,29.238 59.3112,29.5713 60.5,30.5C 57.4304,37.3795 54.7638,44.3795 52.5,51.5C 51.0222,51.762 49.6888,51.4287 48.5,50.5C 49.6368,48.3932 50.6368,46.2265 51.5,44C 49.3962,39.1831 47.3962,34.3498 45.5,29.5 Z"/></g>
<g><path style="opacity:0.789" fill="#fefffe" d="M 107.5,33.5 C 111.427,34.0664 115.427,34.2331 119.5,34C 127.995,39.139 128.662,45.139 121.5,52C 120,52.5 118.5,53 117,53.5C 115.56,52.8524 114.06,52.5191 112.5,52.5C 112.5,54.8333 112.5,57.1667 112.5,59.5C 110.833,59.5 109.167,59.5 107.5,59.5C 107.5,50.8333 107.5,42.1667 107.5,33.5 Z M 113.5,38.5 C 118.083,37.343 120.75,39.0096 121.5,43.5C 120.442,48.0289 117.776,49.3622 113.5,47.5C 111.127,44.5449 111.127,41.5449 113.5,38.5 Z"/></g>
<g><path style="opacity:0.768" fill="#fefffe" d="M 133.5,33.5 C 137.871,34.5376 142.205,34.5376 146.5,33.5C 146.5,39.8333 146.5,46.1667 146.5,52.5C 143.041,51.4003 139.874,51.7337 137,53.5C 129.522,51.6919 126.522,47.0252 128,39.5C 129.36,36.9774 131.193,34.9774 133.5,33.5 Z M 134.5,38.5 C 141.065,37.422 143.232,40.0886 141,46.5C 136.294,49.8918 133.461,48.7252 132.5,43C 132.519,41.167 133.185,39.667 134.5,38.5 Z"/></g>
<g><path style="opacity:0.755" fill="#fefffe" d="M 147.5,33.5 C 149.467,33.2606 151.301,33.5939 153,34.5C 154.393,38.2857 156.059,41.9523 158,45.5C 159.402,41.7931 160.902,38.1264 162.5,34.5C 164.167,33.1667 165.833,33.1667 167.5,34.5C 163.87,42.7525 160.537,51.0858 157.5,59.5C 155.833,59.5 154.167,59.5 152.5,59.5C 153.071,56.5231 154.071,53.6897 155.5,51C 152.693,45.22 150.026,39.3866 147.5,33.5 Z"/></g>
<g><path style="opacity:1" fill="#1a35bf" d="M 18.5,29.5 C 23.2524,29.3414 24.5857,31.3414 22.5,35.5C 21.1667,35.5 19.8333,35.5 18.5,35.5C 18.5,33.5 18.5,31.5 18.5,29.5 Z"/></g>
<g><path style="opacity:1" fill="#1c43c3" d="M 33.5,33.5 C 40.536,32.6026 42.2027,35.1026 38.5,41C 32.7853,41.401 31.1187,38.901 33.5,33.5 Z"/></g>
<g><path style="opacity:1" fill="#829adf" d="M 18.5,29.5 C 18.5,31.5 18.5,33.5 18.5,35.5C 19.8333,35.5 21.1667,35.5 22.5,35.5C 21.0813,36.4511 19.4147,36.7845 17.5,36.5C 17.1984,33.9407 17.5318,31.6074 18.5,29.5 Z"/></g>
</svg>
