<svg width="408" height="216" viewBox="0 0 408 216" fill="none" xmlns="http://www.w3.org/2000/svg">
<g filter="url(#filter0_dd_1217_5744)">
<rect x="40.5" y="20.5002" width="327" height="135" rx="24.5" stroke="#D6DCE5"/>
<path d="M234.143 113.892H248.277V74.2351H234.143V113.892ZM226.184 73.6503C213.127 74.071 206.495 79.9329 206.495 91.5781V113.892H220.757V95.6928C220.757 88.7185 221.67 85.7092 229.942 85.4453V73.8571C228.983 73.6991 228.012 73.6275 227.04 73.6432H226.199M119.295 76.9307C119.295 81.5089 121.256 92.2913 139.498 93.5392C141.045 93.6319 145.145 93.8673 145.145 97.7181C145.145 100.891 141.787 102.76 136.139 102.76C130.713 102.714 125.343 101.672 120.293 99.6863V112.351C126.453 113.871 132.783 114.59 139.127 114.491C154.701 114.491 161.676 105.705 161.676 97.005C161.676 87.1425 153.831 80.7316 140.774 79.8901C138.991 79.776 134.855 79.505 134.855 75.7825C134.855 71.297 140.81 71.297 143.042 71.297C146.964 71.297 152.048 72.4523 155.678 73.5433C155.678 73.5433 157.703 74.2565 159.429 74.9696L159.586 75.0124V62.6682L159.365 62.6041C155.086 61.1065 150.095 59.666 140.867 59.666C124.936 59.6731 119.295 68.9508 119.295 76.9307ZM165.227 62.5827V113.927H179.803V98.0176C184.032 104.357 186.114 113.892 186.114 113.892H203.578C201.846 106.711 194.308 93.4679 194.308 93.4679C198.796 87.6827 202.257 81.1701 204.541 74.2137H187.854C185.939 79.2208 183.22 83.8817 179.803 88.0125V59.6731L165.227 62.5827ZM254.26 62.2261V113.92H268.379V59.7231L254.26 62.2261ZM274.883 62.2261V113.92H289.017V59.7231L274.883 62.2261ZM241.21 56.5211C239.832 56.5211 238.485 56.9298 237.339 57.6953C236.193 58.4609 235.3 59.549 234.773 60.8221C234.246 62.0952 234.108 63.4961 234.376 64.8476C234.645 66.1991 235.309 67.4405 236.283 68.4149C237.258 69.3893 238.499 70.0528 239.85 70.3216C241.202 70.5905 242.603 70.4525 243.876 69.9252C245.149 69.3978 246.237 68.5048 247.003 67.3591C247.768 66.2133 248.177 64.8663 248.177 63.4883C248.183 61.6418 247.455 59.8684 246.154 58.558C244.853 57.2476 243.085 56.5073 241.238 56.4998L241.21 56.5211Z" fill="url(#paint0_linear_1217_5744)"/>
</g>
<defs>
<filter id="filter0_dd_1217_5744" x="0" y="0.000244141" width="408" height="216" filterUnits="userSpaceOnUse" color-interpolation-filters="sRGB">
<feFlood flood-opacity="0" result="BackgroundImageFix"/>
<feColorMatrix in="SourceAlpha" type="matrix" values="0 0 0 0 0 0 0 0 0 0 0 0 0 0 0 0 0 0 127 0" result="hardAlpha"/>
<feOffset dy="2"/>
<feGaussianBlur stdDeviation="10"/>
<feColorMatrix type="matrix" values="0 0 0 0 0.717647 0 0 0 0 0.717647 0 0 0 0 0.717647 0 0 0 0.08 0"/>
<feBlend mode="normal" in2="BackgroundImageFix" result="effect1_dropShadow_1217_5744"/>
<feColorMatrix in="SourceAlpha" type="matrix" values="0 0 0 0 0 0 0 0 0 0 0 0 0 0 0 0 0 0 127 0" result="hardAlpha"/>
<feOffset dy="20"/>
<feGaussianBlur stdDeviation="20"/>
<feColorMatrix type="matrix" values="0 0 0 0 0.717647 0 0 0 0 0.717647 0 0 0 0 0.717647 0 0 0 0.08 0"/>
<feBlend mode="normal" in2="effect1_dropShadow_1217_5744" result="effect2_dropShadow_1217_5744"/>
<feBlend mode="normal" in="SourceGraphic" in2="effect2_dropShadow_1217_5744" result="shape"/>
</filter>
<linearGradient id="paint0_linear_1217_5744" x1="120.825" y1="82.546" x2="290.97" y2="82.546" gradientUnits="userSpaceOnUse">
<stop stop-color="#872165"/>
<stop offset="1" stop-color="#4F2455"/>
</linearGradient>
</defs>
</svg>
