<?xml version="1.0" encoding="UTF-8"?>
<!DOCTYPE svg PUBLIC "-//W3C//DTD SVG 1.1//EN" "http://www.w3.org/Graphics/SVG/1.1/DTD/svg11.dtd">
<svg xmlns="http://www.w3.org/2000/svg" version="1.1" width="218px" height="75px" style="shape-rendering:geometricPrecision; text-rendering:geometricPrecision; image-rendering:optimizeQuality; fill-rule:evenodd; clip-rule:evenodd" xmlns:xlink="http://www.w3.org/1999/xlink">
<g><path style="opacity:0.952" fill="#862164" d="M 152.5,0.5 C 162.928,0.751118 166.428,5.75112 163,15.5C 156.969,20.8295 151.635,20.1628 147,13.5C 146.333,10.8333 146.333,8.16667 147,5.5C 148.73,3.59809 150.563,1.93142 152.5,0.5 Z"/></g>
<g><path style="opacity:0.965" fill="#862164" d="M 34.5,74.5 C 27.5,74.5 20.5,74.5 13.5,74.5C 10.0542,73.3126 6.3875,72.6459 2.5,72.5C 2.39402,66.319 2.39402,60.319 2.5,54.5C 11.91,58.5528 21.5767,59.3861 31.5,57C 34.1667,54.3333 34.1667,51.6667 31.5,49C 20.5506,49.2442 11.3839,45.4109 4,37.5C -2.46705,20.2751 3.36629,9.44175 21.5,5C 32.3235,3.6821 42.8235,4.84876 53,8.5C 53.4994,13.8229 53.666,19.1563 53.5,24.5C 44.1335,20.9748 34.4669,19.8081 24.5,21C 20.5241,23.7159 20.5241,26.3826 24.5,29C 32.2583,29.4842 39.5916,31.4842 46.5,35C 57.0821,44.3928 58.2487,54.8928 50,66.5C 45.3725,70.396 40.2059,73.0626 34.5,74.5 Z"/></g>
<g><path style="opacity:0.971" fill="#862164" d="M 108.5,74.5 C 108.167,74.5 107.833,74.5 107.5,74.5C 100.322,73.8334 92.9891,73.1667 85.5,72.5C 83.6278,66.7161 81.4611,61.0494 79,55.5C 78.5005,61.4908 78.3338,67.4908 78.5,73.5C 72.1667,73.5 65.8333,73.5 59.5,73.5C 59.5,51.5 59.5,29.5 59.5,7.5C 65.8539,6.6292 72.1873,5.6292 78.5,4.5C 78.3335,15.8382 78.5001,27.1716 79,38.5C 82.8597,34.1176 85.693,29.1176 87.5,23.5C 94.8032,22.5027 102.137,22.1694 109.5,22.5C 106.889,31.8878 102.556,40.3878 96.5,48C 102,56.1665 106,64.9999 108.5,74.5 Z"/></g>
<g><path style="opacity:0.93" fill="#862064" d="M 186.5,4.5 C 187.833,4.5 189.167,4.5 190.5,4.5C 190.5,27.5 190.5,50.5 190.5,73.5C 184.167,73.5 177.833,73.5 171.5,73.5C 171.5,51.5 171.5,29.5 171.5,7.5C 176.684,6.80657 181.684,5.80657 186.5,4.5 Z"/></g>
<g><path style="opacity:0.94" fill="#862164" d="M 212.5,4.5 C 213.833,4.5 215.167,4.5 216.5,4.5C 216.5,27.5 216.5,50.5 216.5,73.5C 210.167,73.5 203.833,73.5 197.5,73.5C 197.5,51.5 197.5,29.5 197.5,7.5C 202.684,6.80657 207.684,5.80657 212.5,4.5 Z"/></g>
<g><path style="opacity:0.961" fill="#862164" d="M 128.5,22.5 C 132.833,22.5 137.167,22.5 141.5,22.5C 141.5,27.8333 141.5,33.1667 141.5,38.5C 137.046,37.6171 133.546,38.9504 131,42.5C 130.5,52.828 130.334,63.1613 130.5,73.5C 124.167,73.5 117.833,73.5 111.5,73.5C 111.333,61.4954 111.5,49.4954 112,37.5C 114.741,29.3922 120.241,24.3922 128.5,22.5 Z"/></g>
<g><path style="opacity:0.921" fill="#862064" d="M 146.5,22.5 C 152.833,22.5 159.167,22.5 165.5,22.5C 165.5,39.5 165.5,56.5 165.5,73.5C 159.167,73.5 152.833,73.5 146.5,73.5C 146.5,56.5 146.5,39.5 146.5,22.5 Z"/></g>
</svg>
