<?xml version="1.0" encoding="UTF-8"?>
<!DOCTYPE svg PUBLIC "-//W3C//DTD SVG 1.1//EN" "http://www.w3.org/Graphics/SVG/1.1/DTD/svg11.dtd">
<svg xmlns="http://www.w3.org/2000/svg" version="1.1" width="274px" height="75px" style="shape-rendering:geometricPrecision; text-rendering:geometricPrecision; image-rendering:optimizeQuality; fill-rule:evenodd; clip-rule:evenodd" xmlns:xlink="http://www.w3.org/1999/xlink">
<g><path style="opacity:0.969" fill="#50ae94" d="M 15.5,0.5 C 33.5123,0.167123 51.5123,0.500457 69.5,1.5C 75.496,12.143 80.3293,23.143 84,34.5C 70.3176,47.6831 56.4842,60.6831 42.5,73.5C 28.1708,60.504 14.1708,47.1706 0.5,33.5C 5.78588,22.5974 10.7859,11.5974 15.5,0.5 Z"/></g>
<g><path style="opacity:0.894" fill="#fefffe" d="M 185.5,9.5 C 187.5,9.5 189.5,9.5 191.5,9.5C 191.334,15.1764 191.501,20.8431 192,26.5C 196.861,22.303 202.027,21.803 207.5,25C 209.041,26.5793 210.208,28.4127 211,30.5C 211.5,38.4931 211.666,46.4931 211.5,54.5C 209.5,54.5 207.5,54.5 205.5,54.5C 205.666,47.4921 205.5,40.4921 205,33.5C 203.336,28.9617 200.169,27.4617 195.5,29C 193.951,30.214 192.785,31.714 192,33.5C 191.5,40.4921 191.334,47.4921 191.5,54.5C 189.5,54.5 187.5,54.5 185.5,54.5C 185.5,39.5 185.5,24.5 185.5,9.5 Z"/></g>
<g><path style="opacity:1" fill="#fafcfc" d="M 48.5,26.5 C 48.5,26.8333 48.5,27.1667 48.5,27.5C 47.5318,29.6074 47.1984,31.9407 47.5,34.5C 44.1667,34.5 40.8333,34.5 37.5,34.5C 37.5,32.1667 37.5,29.8333 37.5,27.5C 37.5,27.1667 37.5,26.8333 37.5,26.5C 37.5,24.5 37.5,22.5 37.5,20.5C 32.5,20.5 27.5,20.5 22.5,20.5C 22.5,17.1667 22.5,13.8333 22.5,10.5C 35.8333,10.5 49.1667,10.5 62.5,10.5C 62.5,13.8333 62.5,17.1667 62.5,20.5C 57.5,20.5 52.5,20.5 47.5,20.5C 47.2053,22.7354 47.5386,24.7354 48.5,26.5 Z"/></g>
<g><path style="opacity:0.863" fill="#fefffe" d="M 112.5,14.5 C 113.477,17.2869 113.81,20.2869 113.5,23.5C 116.167,23.5 118.833,23.5 121.5,23.5C 121.5,25.1667 121.5,26.8333 121.5,28.5C 118.833,28.5 116.167,28.5 113.5,28.5C 113.334,34.8421 113.5,41.1754 114,47.5C 115.83,50.6643 118.33,51.331 121.5,49.5C 121.562,54.984 118.895,56.8174 113.5,55C 111.671,54.7265 110.171,53.8932 109,52.5C 107.565,44.6112 107.065,36.6112 107.5,28.5C 105.833,28.5 104.167,28.5 102.5,28.5C 102.5,26.8333 102.5,25.1667 102.5,23.5C 104.167,23.5 105.833,23.5 107.5,23.5C 107.337,21.1432 107.503,18.8098 108,16.5C 109.622,15.9011 111.122,15.2344 112.5,14.5 Z"/></g>
<g><path style="opacity:0.863" fill="#fefffe" d="M 168.5,14.5 C 169.477,17.2869 169.81,20.2869 169.5,23.5C 172.167,23.5 174.833,23.5 177.5,23.5C 177.5,25.1667 177.5,26.8333 177.5,28.5C 174.833,28.5 172.167,28.5 169.5,28.5C 169.334,34.8421 169.5,41.1754 170,47.5C 171.83,50.6643 174.33,51.331 177.5,49.5C 177.562,54.984 174.895,56.8174 169.5,55C 167.671,54.7265 166.171,53.8932 165,52.5C 163.565,44.6112 163.065,36.6112 163.5,28.5C 161.833,28.5 160.167,28.5 158.5,28.5C 158.5,26.8333 158.5,25.1667 158.5,23.5C 160.167,23.5 161.833,23.5 163.5,23.5C 163.337,21.1432 163.503,18.8098 164,16.5C 165.622,15.9011 167.122,15.2344 168.5,14.5 Z"/></g>
<g><path style="opacity:0.831" fill="#fefffe" d="M 139.5,22.5 C 149.889,23.391 154.722,29.0576 154,39.5C 146.921,40.4799 139.755,40.8132 132.5,40.5C 132.893,47.0595 136.393,50.3928 143,50.5C 145.811,50.2973 148.478,49.6306 151,48.5C 153.661,52.6768 152.494,54.8435 147.5,55C 130.165,56.3237 123.665,48.4904 128,31.5C 130.593,26.721 134.427,23.721 139.5,22.5 Z M 138.5,27.5 C 144.21,26.8533 147.544,29.3533 148.5,35C 143.167,35.6667 137.833,35.6667 132.5,35C 133.69,31.7505 135.69,29.2505 138.5,27.5 Z"/></g>
<g><path style="opacity:0.827" fill="#fefffe" d="M 232.5,22.5 C 243.551,23.2009 248.551,29.2009 247.5,40.5C 240.159,40.3337 232.826,40.5003 225.5,41C 228.822,50.1141 234.989,52.6141 244,48.5C 245.505,50.2983 245.672,52.1316 244.5,54C 225.74,58.5579 217.906,51.3912 221,32.5C 223.21,27.1124 227.043,23.779 232.5,22.5 Z M 231.5,27.5 C 236.948,26.8858 240.282,29.2191 241.5,34.5C 236.544,35.4941 231.544,35.8275 226.5,35.5C 227.166,32.1597 228.833,29.493 231.5,27.5 Z"/></g>
<g><path style="opacity:0.873" fill="#fefffe" d="M 267.5,22.5 C 268.822,22.33 269.989,22.6634 271,23.5C 271.667,25.5 271.667,27.5 271,29.5C 267.742,28.4455 265.076,29.4455 263,32.5C 261.609,39.7458 261.109,47.0791 261.5,54.5C 259.5,54.5 257.5,54.5 255.5,54.5C 255.5,44.1667 255.5,33.8333 255.5,23.5C 257.167,23.5 258.833,23.5 260.5,23.5C 260.34,25.1992 260.506,26.8659 261,28.5C 262.436,25.5581 264.603,23.5581 267.5,22.5 Z"/></g>
<g><path style="opacity:1" fill="#b9dfd4" d="M 37.5,26.5 C 37.5,26.8333 37.5,27.1667 37.5,27.5C 31.667,27.7496 26.0003,28.7496 20.5,30.5C 20.5,29.8333 20.1667,29.5 19.5,29.5C 25.1545,27.2241 31.1545,26.2241 37.5,26.5 Z"/></g>
<g><path style="opacity:1" fill="#add9cd" d="M 48.5,27.5 C 48.5,27.1667 48.5,26.8333 48.5,26.5C 54.5032,26.3325 60.1699,27.3325 65.5,29.5C 64.8333,29.5 64.5,29.8333 64.5,30.5C 59.2376,29.1073 53.9043,28.1073 48.5,27.5 Z"/></g>
<g><path style="opacity:1" fill="#53af95" d="M 37.5,27.5 C 37.5,29.8333 37.5,32.1667 37.5,34.5C 40.8333,34.5 44.1667,34.5 47.5,34.5C 47.1984,31.9407 47.5318,29.6074 48.5,27.5C 53.9043,28.1073 59.2376,29.1073 64.5,30.5C 66.9865,31.9498 66.6531,33.1165 63.5,34C 49.0925,37.4958 34.7592,37.3291 20.5,33.5C 19.2241,32.3864 19.2241,31.3864 20.5,30.5C 26.0003,28.7496 31.667,27.7496 37.5,27.5 Z"/></g>
<g><path style="opacity:1" fill="#fbfdfc" d="M 19.5,29.5 C 20.1667,29.5 20.5,29.8333 20.5,30.5C 19.2241,31.3864 19.2241,32.3864 20.5,33.5C 34.7592,37.3291 49.0925,37.4958 63.5,34C 66.6531,33.1165 66.9865,31.9498 64.5,30.5C 64.5,29.8333 64.8333,29.5 65.5,29.5C 68.128,30.2545 68.7946,31.7545 67.5,34C 61.2131,36.5744 54.7131,38.0744 48,38.5C 47.5004,45.1583 47.3337,51.825 47.5,58.5C 44.1667,58.5 40.8333,58.5 37.5,58.5C 37.5,51.5 37.5,44.5 37.5,37.5C 35.1667,37.5 32.8333,37.5 30.5,37.5C 25.0966,37.6568 20.4299,35.9901 16.5,32.5C 17.1882,31.1451 18.1882,30.1451 19.5,29.5 Z"/></g>
<g><path style="opacity:1" fill="#77c0ac" d="M 30.5,37.5 C 32.8333,37.5 35.1667,37.5 37.5,37.5C 37.5,44.5 37.5,51.5 37.5,58.5C 36.5093,52.021 36.176,45.3543 36.5,38.5C 34.2646,38.7947 32.2646,38.4614 30.5,37.5 Z"/></g>
</svg>
