<?xml version="1.0" encoding="UTF-8"?>
<!DOCTYPE svg PUBLIC "-//W3C//DTD SVG 1.1//EN" "http://www.w3.org/Graphics/SVG/1.1/DTD/svg11.dtd">
<svg xmlns="http://www.w3.org/2000/svg" version="1.1" width="245px" height="75px" style="shape-rendering:geometricPrecision; text-rendering:geometricPrecision; image-rendering:optimizeQuality; fill-rule:evenodd; clip-rule:evenodd" xmlns:xlink="http://www.w3.org/1999/xlink">
<g><path style="opacity:1" fill="#f36565" d="M -0.5,-0.5 C 0.5,-0.5 1.5,-0.5 2.5,-0.5C 5.02042,0.918165 7.68709,1.91816 10.5,2.5C 8.4727,2.33788 6.4727,2.50454 4.5,3C 3.02674,3.70956 2.36007,4.87623 2.5,6.5C 1.85706,4.92359 0.857056,3.59026 -0.5,2.5C -0.5,1.5 -0.5,0.5 -0.5,-0.5 Z"/></g>
<g><path style="opacity:1" fill="#ee2d32" d="M 10.5,2.5 C 26.1101,4.75588 41.4434,7.75588 56.5,11.5C 56.5,12.5 56.5,13.5 56.5,14.5C 55.1266,14.3433 53.7932,14.51 52.5,15C 53.056,15.3826 53.3893,15.8826 53.5,16.5C 50.1486,19.8482 46.4819,22.8482 42.5,25.5C 41.7109,25.7828 41.0442,26.2828 40.5,27C 43.3592,27.553 46.1925,27.3863 49,26.5C 50.8882,26.796 52.7216,27.296 54.5,28C 53.2625,28.2321 52.2625,28.7321 51.5,29.5C 48.0542,30.6874 44.3875,31.3541 40.5,31.5C 39.1667,31.5 37.8333,31.5 36.5,31.5C 35.6464,37.1423 34.9797,42.809 34.5,48.5C 33.1071,46.4888 32.4404,44.1554 32.5,41.5C 33.5418,37.3319 33.5418,33.3319 32.5,29.5C 25.2273,24.0712 18.0606,18.4045 11,12.5C 11.4838,15.8393 12.3172,19.1726 13.5,22.5C 13.719,23.675 13.3857,24.675 12.5,25.5C 11.7348,24.3881 10.7348,23.7214 9.5,23.5C 6.60042,18.1517 4.26709,12.4851 2.5,6.5C 2.36007,4.87623 3.02674,3.70956 4.5,3C 6.4727,2.50454 8.4727,2.33788 10.5,2.5 Z M 14.5,8.5 C 25.164,10.166 35.8307,11.8327 46.5,13.5C 47.1667,14.1667 47.8333,14.8333 48.5,15.5C 43.9528,18.6985 39.4528,22.0318 35,25.5C 27.9881,19.9825 21.1547,14.3159 14.5,8.5 Z"/></g>
<g><path style="opacity:0.412" fill="#f8929a" d="M 46.5,13.5 C 47.675,13.281 48.675,13.6143 49.5,14.5C 49.3764,15.1067 49.0431,15.44 48.5,15.5C 47.8333,14.8333 47.1667,14.1667 46.5,13.5 Z"/></g>
<g><path style="opacity:0.749" fill="#fefffe" d="M 208.5,15.5 C 210.371,15.8588 211.871,16.8588 213,18.5C 220.629,27.7974 228.629,36.7974 237,45.5C 237.5,36.1726 237.666,26.8393 237.5,17.5C 239.5,17.5 241.5,17.5 243.5,17.5C 243.667,31.504 243.5,45.504 243,59.5C 233.297,49.4654 223.963,39.132 215,28.5C 214.5,37.8274 214.334,47.1607 214.5,56.5C 212.5,56.5 210.5,56.5 208.5,56.5C 208.562,42.6541 208.562,28.9875 208.5,15.5 Z"/></g>
<g><path style="opacity:0.661" fill="#fefffe" d="M 82.5,17.5 C 93.8333,17.5 105.167,17.5 116.5,17.5C 116.5,19.5 116.5,21.5 116.5,23.5C 105.167,23.5 93.8333,23.5 82.5,23.5C 82.5,21.5 82.5,19.5 82.5,17.5 Z"/></g>
<g><path style="opacity:0.779" fill="#fefffe" d="M 123.5,17.5 C 131.507,17.3336 139.507,17.5003 147.5,18C 155.959,20.4152 159.126,25.9152 157,34.5C 155.356,37.3106 153.19,39.644 150.5,41.5C 152.786,46.5745 155.453,51.4078 158.5,56C 156.5,56.6667 154.5,56.6667 152.5,56C 149.787,52.0758 147.453,47.9091 145.5,43.5C 142.572,42.5159 139.572,42.1826 136.5,42.5C 136.5,47.1667 136.5,51.8333 136.5,56.5C 134.833,56.5 133.167,56.5 131.5,56.5C 131.5,49.8333 131.5,43.1667 131.5,36.5C 137.509,36.6662 143.509,36.4995 149.5,36C 153.5,32 153.5,28 149.5,24C 142.508,23.5004 135.508,23.3337 128.5,23.5C 128.5,34.5 128.5,45.5 128.5,56.5C 126.833,56.5 125.167,56.5 123.5,56.5C 123.5,43.5 123.5,30.5 123.5,17.5 Z"/></g>
<g><path style="opacity:0.799" fill="#fefffe" d="M 180.5,17.5 C 196.492,18.3214 203.659,26.6547 202,42.5C 195.524,56.548 185.357,60.048 171.5,53C 160.543,42.0132 160.877,31.3465 172.5,21C 175.158,19.522 177.825,18.3554 180.5,17.5 Z M 178.5,23.5 C 193.394,22.3031 199.228,28.9698 196,43.5C 189.678,52.3871 182.012,53.7205 173,47.5C 166.482,37.5884 168.316,29.5884 178.5,23.5 Z"/></g>
<g><path style="opacity:0.78" fill="#fefffe" d="M 93.5,28.5 C 95.1667,28.5 96.8333,28.5 98.5,28.5C 98.5,37.8333 98.5,47.1667 98.5,56.5C 96.8333,56.5 95.1667,56.5 93.5,56.5C 93.5,47.1667 93.5,37.8333 93.5,28.5 Z"/></g>
<g><path style="opacity:0.793" fill="#fefffe" d="M 100.5,28.5 C 102.167,28.5 103.833,28.5 105.5,28.5C 105.5,37.8333 105.5,47.1667 105.5,56.5C 103.833,56.5 102.167,56.5 100.5,56.5C 100.5,47.1667 100.5,37.8333 100.5,28.5 Z"/></g>
<g><path style="opacity:0.692" fill="#fefffe" d="M 182.5,33.5 C 187.571,35.5342 187.738,37.8675 183,40.5C 178.557,38.369 178.39,36.0357 182.5,33.5 Z"/></g>
<g><path style="opacity:0.788" fill="#fefffe" d="M 215.5,34.5 C 217.755,35.6476 219.588,37.3143 221,39.5C 221.499,45.1569 221.666,50.8236 221.5,56.5C 219.833,56.5 218.167,56.5 216.5,56.5C 216.764,49.1104 216.43,41.7771 215.5,34.5 Z"/></g>
<g><path style="opacity:1" fill="#f03838" d="M 56.5,11.5 C 61.1464,15.8115 65.8131,20.1449 70.5,24.5C 58,39.5 45.5,54.5 33,69.5C 31.9055,71.0779 31.0722,72.7446 30.5,74.5C 29.8333,74.5 29.1667,74.5 28.5,74.5C 21.9701,57.5773 15.6367,40.5773 9.5,23.5C 10.7348,23.7214 11.7348,24.3881 12.5,25.5C 13.3857,24.675 13.719,23.675 13.5,22.5C 18.8899,34.9641 24.0566,47.6308 29,60.5C 30.2499,50.1682 31.4166,39.8349 32.5,29.5C 33.5418,33.3319 33.5418,37.3319 32.5,41.5C 32.4404,44.1554 33.1071,46.4888 34.5,48.5C 33.7279,52.4517 33.3946,56.4517 33.5,60.5C 33.8333,61.8333 34.1667,61.8333 34.5,60.5C 35.1667,60.5 35.5,60.1667 35.5,59.5C 43.4665,49.0883 51.7998,38.9216 60.5,29C 57.5248,28.9565 54.5248,29.1231 51.5,29.5C 52.2625,28.7321 53.2625,28.2321 54.5,28C 52.7216,27.296 50.8882,26.796 49,26.5C 46.1925,27.3863 43.3592,27.553 40.5,27C 41.0442,26.2828 41.7109,25.7828 42.5,25.5C 42.7352,26.0967 43.2352,26.4301 44,26.5C 49.7973,25.1725 55.6306,24.0059 61.5,23C 59.2295,20.2179 56.5628,18.0512 53.5,16.5C 53.3893,15.8826 53.056,15.3826 52.5,15C 53.7932,14.51 55.1266,14.3433 56.5,14.5C 56.5,13.5 56.5,12.5 56.5,11.5 Z M 35.5,59.5 C 34.8476,58.5514 34.5143,57.3847 34.5,56C 35.5422,48.162 36.5422,40.3286 37.5,32.5C 38.791,32.7373 39.791,32.404 40.5,31.5C 44.3875,31.3541 48.0542,30.6874 51.5,29.5C 54.5248,29.1231 57.5248,28.9565 60.5,29C 51.7998,38.9216 43.4665,49.0883 35.5,59.5 Z"/></g>
<g><path style="opacity:0.851" fill="#f2545b" d="M 40.5,31.5 C 39.791,32.404 38.791,32.7373 37.5,32.5C 36.5422,40.3286 35.5422,48.162 34.5,56C 34.5143,57.3847 34.8476,58.5514 35.5,59.5C 35.5,60.1667 35.1667,60.5 34.5,60.5C 34.1667,60.5 33.8333,60.5 33.5,60.5C 33.3946,56.4517 33.7279,52.4517 34.5,48.5C 34.9797,42.809 35.6464,37.1423 36.5,31.5C 37.8333,31.5 39.1667,31.5 40.5,31.5 Z"/></g>
</svg>
