<?xml version="1.0" encoding="UTF-8"?>
<!DOCTYPE svg PUBLIC "-//W3C//DTD SVG 1.1//EN" "http://www.w3.org/Graphics/SVG/1.1/DTD/svg11.dtd">
<svg xmlns="http://www.w3.org/2000/svg" version="1.1" width="259px" height="75px" style="shape-rendering:geometricPrecision; text-rendering:geometricPrecision; image-rendering:optimizeQuality; fill-rule:evenodd; clip-rule:evenodd" xmlns:xlink="http://www.w3.org/1999/xlink">
<g><path style="opacity:0.886" fill="#00569f" d="M 156.5,74.5 C 150.5,74.5 144.5,74.5 138.5,74.5C 133.679,73.4952 128.845,72.1619 124,70.5C 124.39,64.8182 125.224,59.1515 126.5,53.5C 130.827,54.5511 135.16,55.7177 139.5,57C 145.167,57.6667 150.833,57.6667 156.5,57C 160.872,54.805 161.539,51.805 158.5,48C 151.724,45.4461 145.391,42.1127 139.5,38C 129.971,27.7774 130.304,17.7774 140.5,8C 152.549,0.880503 165.549,-1.45283 179.5,1C 181.878,1.5112 184.212,2.17786 186.5,3C 187.081,3.8926 187.415,4.8926 187.5,6C 186.621,10.7332 185.621,15.3998 184.5,20C 182.177,19.6943 179.844,19.0277 177.5,18C 171.5,17.3333 165.5,17.3333 159.5,18C 155.779,19.7142 155.113,22.0475 157.5,25C 165.607,28.588 173.274,32.9213 180.5,38C 188.186,51.5553 185.186,62.222 171.5,70C 166.518,71.9896 161.518,73.4896 156.5,74.5 Z"/></g>
<g><path style="opacity:0.903" fill="#f7a41b" d="M -0.5,1.5 C 13.5729,1.05276 27.5729,1.55276 41.5,3C 43.317,4.79976 44.4837,6.96642 45,9.5C 47.4873,19.1044 49.654,28.7711 51.5,38.5C 45.4041,29.2362 37.7374,21.4029 28.5,15C 26.3496,13.5886 24.0163,12.7553 21.5,12.5C 14.4553,9.2607 7.12192,6.59404 -0.5,4.5C -0.5,3.5 -0.5,2.5 -0.5,1.5 Z"/></g>
<g><path style="opacity:0.905" fill="#02569f" d="M 21.5,12.5 C 24.0163,12.7553 26.3496,13.5886 28.5,15C 37.7374,21.4029 45.4041,29.2362 51.5,38.5C 52.3267,41.1317 53.16,43.7983 54,46.5C 59.9085,31.688 66.0752,17.0213 72.5,2.5C 80.4723,1.5023 88.4723,1.16897 96.5,1.5C 85.8503,25.4695 75.1837,49.4695 64.5,73.5C 56.1667,73.5 47.8333,73.5 39.5,73.5C 33.9016,53.0392 27.9016,32.7059 21.5,12.5 Z"/></g>
<g><path style="opacity:0.881" fill="#00569f" d="M 103.5,1.5 C 111.196,1.16917 118.862,1.50251 126.5,2.5C 121.684,25.7248 117.184,49.0582 113,72.5C 105.587,73.4808 98.0871,73.8142 90.5,73.5C 94.189,49.3642 98.5224,25.3642 103.5,1.5 Z"/></g>
<g><path style="opacity:0.895" fill="#00569f" d="M 219.5,1.5 C 226.755,1.18678 233.921,1.52011 241,2.5C 246.978,26.0779 252.478,49.7446 257.5,73.5C 250.5,73.5 243.5,73.5 236.5,73.5C 235.833,70.1667 235.167,66.8333 234.5,63.5C 225.833,63.5 217.167,63.5 208.5,63.5C 207.5,66.8333 206.5,70.1667 205.5,73.5C 197.5,73.5 189.5,73.5 181.5,73.5C 191.966,51.23 202.466,28.8967 213,6.5C 214.805,4.17434 216.972,2.50767 219.5,1.5 Z M 224.5,25.5 C 226.788,31.9625 228.788,38.6292 230.5,45.5C 225.833,46.8333 221.167,46.8333 216.5,45.5C 219.74,39.0268 222.406,32.3601 224.5,25.5 Z"/></g>
</svg>
