<svg xmlns="http://www.w3.org/2000/svg" fill="#ffffff" viewBox="0 0 512 512"><g><path d="M451.482,90.935c-17.843,26.582-31.112,55.511-39.497,85.906l24.251,9.287c12.655,4.847,18.986,19.035,14.139,31.691c-4.85,12.665-19.048,18.983-31.692,14.139l-15.842-6.068c-1.991,19.816-2.042,39.888,0,60.214l15.842-6.068c12.659-4.844,26.845,1.484,31.692,14.139c4.847,12.655-1.484,26.845-14.139,31.691l-24.251,9.287c8.387,30.395,21.656,59.326,39.499,85.908C532.141,325.695,532.204,186.38,451.482,90.935z"/><path d="M346.158,360.37c-12.65,4.846-26.842-1.479-31.692-14.139c-4.847-12.655,1.484-26.845,14.139-31.692l26.978-10.332c-4.348-31.254-4.538-63.795,0-96.412l-26.978-10.332c-12.655-4.847-18.986-19.035-14.139-31.692c4.846-12.655,19.035-18.988,31.692-14.139l19.811,7.587c10.646-36.603,27.385-71.332,49.854-103.019c-92.749-74.342-225.46-75.492-319.646,0c22.469,31.687,39.208,66.416,49.854,103.019l19.811-7.587c12.657-4.846,26.845,1.484,31.692,14.139c4.847,12.655-1.484,26.845-14.139,31.692l-26.978,10.332c4.348,31.254,4.538,63.794,0,96.412l26.978,10.332c12.655,4.847,18.986,19.035,14.139,31.692c-4.85,12.665-19.05,18.983-31.692,14.139l-19.811-7.587c-10.646,36.603-27.385,71.332-49.854,103.019c92.749,74.342,225.46,75.492,319.646,0c-22.469-31.687-39.208-66.416-49.854-103.019L346.158,360.37z"/><path d="M93.316,280.042l15.842,6.068c1.989-19.816,2.042-39.888,0-60.214l-15.842,6.068c-12.65,4.846-26.842-1.477-31.692-14.139c-4.847-12.655,1.484-26.845,14.139-31.691l24.251-9.287c-8.386-30.4-21.654-59.329-39.497-85.911c-80.657,95.372-80.72,234.685,0,330.132c17.843-26.582,31.112-55.513,39.499-85.908l-24.252-9.287c-12.655-4.847-18.986-19.035-14.139-31.691C66.469,281.526,80.661,275.192,93.316,280.042z"/></g></svg>