<svg xmlns="http://www.w3.org/2000/svg" fill="#ffffff" viewBox="0 0 511.969 511.969"><g><path d="m299.893 272.668v-61.5c-50.7 7.2-90 51-90 103.801v45h60v-45c0-19.5 12.599-36.3 30-42.301z"/><path d="m164.893 419.969c-24.814 0-45-20.186-45-45s20.186-45 45-45c5.284 0 10.285 1.082 15 2.763v-17.763c0-74.401 60.601-135 135-135h183.9c-14.7-48.001-43.801-91.201-84.3-123.9-60.601-48.6-139.801-66.899-217.2-49.801-79.801 17.701-147.9 75-178.2 149.702-32.701 80.999-22.8 172.5 26.4 245.4 32.999 49.199 77.699 78.6 119.399 78.6 52.8 0 96.599-39.3 103.801-90h-61.563c-6.213 17.422-22.707 29.999-42.237 29.999z"/><path d="m509.893 254.969c0-15.3-1.199-30.3-3.9-45h-176.1v60h165c8.401 0 15-6.601 15-15z"/><circle cx="164.893" cy="374.969" r="15"/><path d="m496.893 359.969h-167v-90h-15c-5.4 0-10.201.899-15 2.699v87.301h-30v15c0 5.099-.3 10.199-1.199 15h31.199v46c0 41.353 33.647 76 75 76h92c5.712 0 11.52-4.495 13.418-8.291 1.289-2.578 31.582-65.896 31.582-128.709 0-8.291-6.709-15-15-15zm-167 30h151.128c-.857 10.285-2.369 21.343-4.459 31h-146.67v-31zm2.763 61h135.824c-4.2 12.946-8.335 24.284-11.252 31h-82.336c-19.529 0-36.023-13.577-42.236-31z"/></g></svg>