<svg xmlns="http://www.w3.org/2000/svg" fill="#ffffff" viewBox="0 0 90 90"><g><path d="m69.848 41.948c2.65.068 4.744 2.276 4.675 4.934-.071 2.65-2.276 4.744-4.926 4.672-2.651-.068-4.744-2.276-4.677-4.928.068-2.652 2.275-4.745 4.928-4.678zm-43.849-11.859c1.724 0 2.943 1.219 2.943 2.735v4.588h4.587c1.511 0 2.73 1.219 2.73 2.943 0 1.719-1.219 2.938-2.73 2.938h-4.587v4.594c0 1.509-1.219 2.728-2.943 2.728s-2.942-1.219-2.942-2.728v-4.594h-4.589c-1.509 0-2.728-1.219-2.728-2.938 0-1.724 1.219-2.943 2.728-2.943h4.589v-4.588c0-1.516 1.218-2.735 2.942-2.735zm35.858-.937c2.652.072 4.745 2.276 4.678 4.932-.072 2.651-2.282 4.746-4.932 4.672-2.65-.067-4.746-2.276-4.677-4.926.072-2.653 2.275-4.747 4.931-4.678zm-36.749-13.063c-9.796 0-15.083 6.156-15.912 13.703l-3.535 32.265c-.823 7.543 5.677 11.934 10.609 11.934 9.688 0 17.542-15.781 22.781-15.781h12.109c5.24 0 13.088 15.781 22.781 15.781 4.932 0 11.614-4.412 10.604-11.934l-3.536-32.265c-1.011-7.52-6.115-13.703-15.907-13.703-7.193 0-8.745 3.907-16.713 3.907h-6.567c-7.968 0-9.526-3.907-16.714-3.907z"/></g></svg>